<?xml version="1.0" encoding="utf-8" standalone="no"?>
<svg viewBox="0 0 92 92" version="1.1" xmlns="http://www.w3.org/2000/svg" xmlns:xlink="http://www.w3.org/1999/xlink" stroke-linecap="round" stroke-linejoin="round" fill-rule="evenodd" xml:space="preserve" >
<g fill="none" stroke="rgb(0,0,0)" stroke-width="0.115" >
<polygon points="68.6772,55.4488 68.677,55.411 68.6764,55.3732 68.6755,55.3355 68.6741,55.2977 68.6724,55.2599 68.6704,55.2222 68.6679,55.1845 68.6651,55.1468 68.6619,55.1091 68.6583,55.0715 68.6543,55.0339 68.65,54.9964 68.6453,54.9589 68.6402,54.9214 68.6347,54.884 68.6289,54.8467 68.6227,54.8094 68.6161,54.7722 68.6091,54.735 68.6018,54.6979 68.5941,54.6609 68.5861,54.624 68.5776,54.5872 68.5688,54.5504 68.5597,54.5137 68.5501,54.4772 68.5402,54.4407 68.53,54.4043 68.5193,54.3681 68.5084,54.3319 68.497,54.2958 68.4853,54.2599 68.4732,54.2241 68.4608,54.1884 68.448,54.1528 68.4349,54.1174 68.4214,54.0821 68.4076,54.0469 68.3934,54.0119 68.3788,53.977 68.3639,53.9423 68.3487,53.9077 68.3331,53.8732 68.3172,53.839 68.3009,53.8049 68.2843,53.7709 68.2673,53.7371 68.2501,53.7035 68.2324,53.6701 68.2145,53.6368 68.1962,53.6037 68.1776,53.5708 68.1586,53.5381 68.1394,53.5056 68.1198,53.4733 68.0999,53.4412 68.0796,53.4093 68.0591,53.3775 68.0382,53.346 68.017,53.3147 67.9955,53.2837 67.9737,53.2528 67.9516,53.2221 67.9292,53.1917 67.9065,53.1615 67.8834,53.1315 67.8601,53.1018 67.8365,53.0723 67.8126,53.043 67.7884,53.014 67.7639,52.9852 67.7391,52.9567 67.714,52.9284 67.6887,52.9003 67.6631,52.8725 67.6372,52.845 67.611,52.8178 67.5846,52.7908 67.5578,52.764 67.5309,52.7376 67.5036,52.7114 67.4761,52.6854 67.4483,52.6598 67.4203,52.6344 67.3921,52.6093 67.3635,52.5845 67.3348,52.56 67.3058,52.5358 67.2765,52.5119 67.247,52.4882 67.2173,52.4649 67.1874,52.4418 67.1572,52.4191 67.1268,52.3966 67.0961,52.3745 67.0653,52.3527 67.0342,52.3311 67.0029,52.3099 66.9714,52.289 66.9397,52.2685 66.9078,52.2482 66.8757,52.2283 66.8434,52.2086 66.8109,52.1893 66.7782,52.1704 66.7453,52.1517 66.7123,52.1334 66.679,52.1154 66.6456,52.0978 66.612,52.0805 66.5782,52.0635 66.5443,52.0469 66.5102,52.0306 66.4759,52.0146 66.4415,51.999 66.407,51.9837 66.3722,51.9688 66.3374,51.9542 66.3023,51.94 66.2672,51.9262 66.2319,51.9126 66.1965,51.8995 66.1609,51.8867 66.1252,51.8742 66.0894,51.8621 66.0535,51.8504 66.0174,51.839 65.9813,51.828 65.945,51.8173 65.9087,51.807 65.8722,51.7971 65.8356,51.7875 65.799,51.7783 65.7622,51.7695 65.7254,51.761 65.6885,51.753 65.6515,51.7452 65.6144,51.7379 65.5772,51.7309 65.54,51.7243 65.5028,51.718 65.4654,51.7122 65.428,51.7067 65.3906,51.7016 65.3531,51.6968 65.3155,51.6925 65.278,51.6885 65.2403,51.6849 65.2027,51.6816 65.165,51.6788 65.1273,51.6763 65.0895,51.6742 65.0518,51.6724 65.014,51.6711 64.9762,51.6701 64.9384,51.6695 64.9006,51.6693 64.8629,51.6695 64.8251,51.67 64.7873,51.6709 64.7495,51.6722 64.7117,51.6739 64.674,51.6759 64.6363,51.6783 64.5986,51.6811 64.5609,51.6843 64.5233,51.6879 64.4857,51.6918 64.4482,51.6961 64.4107,51.7008 64.3732,51.7059 64.3358,51.7113 64.2985,51.7171 64.2612,51.7233 64.224,51.7298 64.1868,51.7367 64.1497,51.744 64.1127,51.7517 64.0758,51.7597 64.0389,51.7681 64.0022,51.7769 63.9655,51.786 63.9289,51.7955 63.8924,51.8054 63.856,51.8157 63.8198,51.8263 63.7836,51.8372 63.7475,51.8485 63.7116,51.8602 63.6758,51.8723 63.6401,51.8846 63.6045,51.8974 63.569,51.9105 63.5337,51.924 63.4985,51.9378 63.4635,51.952 63.4286,51.9665 63.3938,51.9813 63.3592,51.9965 63.3248,52.0121 63.2905,52.028 63.2564,52.0442 63.2224,52.0608 63.1886,52.0777 63.155,52.095 63.1216,52.1126 63.0883,52.1305 63.0552,52.1488 63.0223,52.1674 62.9896,52.1863 62.957,52.2055 62.9247,52.2251 62.8926,52.245 62.8606,52.2652 62.8289,52.2857 62.7974,52.3066 62.766,52.3277 62.7349,52.3492 62.704,52.371 62.6734,52.3931 62.6429,52.4155 62.6127,52.4382 62.5827,52.4612 62.553,52.4845 62.5234,52.5081 62.4941,52.532 62.4651,52.5561 62.4363,52.5806 62.4077,52.6054 62.3794,52.6304 62.3514,52.6557 62.3236,52.6813 62.296,52.7072 62.2687,52.7334 62.2417,52.7598 62.215,52.7865 62.1885,52.8134 62.1623,52.8407 62.1363,52.8681 62.1106,52.8959 62.0852,52.9239 62.0601,52.9521 62.0353,52.9806 62.0108,53.0094 61.9865,53.0384 61.9626,53.0676 61.9389,53.0971 61.9155,53.1268 61.8925,53.1567 61.8697,53.1869 61.8472,53.2173 61.8251,53.2479 61.8032,53.2787 61.7817,53.3098 61.7604,53.341 61.7395,53.3725 61.7189,53.4042 61.6986,53.4361 61.6786,53.4682 61.659,53.5005 61.6397,53.533 61.6207,53.5656 61.602,53.5985 61.5837,53.6315 61.5657,53.6648 61.548,53.6982 61.5307,53.7318 61.5137,53.7655 61.497,53.7994 61.4807,53.8335 61.4647,53.8678 61.4491,53.9022 61.4338,53.9367 61.4188,53.9715 61.4042,54.0063 61.39,54.0413 61.3761,54.0765 61.3625,54.1118 61.3493,54.1472 61.3365,54.1827 61.324,54.2184 61.3119,54.2542 61.3001,54.2901 61.2887,54.3261 61.2777,54.3623 61.267,54.3985 61.2566,54.4349 61.2467,54.4714 61.2371,54.5079 61.2279,54.5446 61.219,54.5813 61.2105,54.6181 61.2024,54.6551 61.1946,54.692 61.1873,54.7291 61.1803,54.7663 61.1736,54.8035 61.1673,54.8407 61.1615,54.8781 61.1559,54.9155 61.1508,54.9529 61.146,54.9904 61.1416,55.0279 61.1376,55.0655 61.134,55.1031 61.1307,55.1408 61.1278,55.1785 61.1253,55.2162 61.1231,55.2539 61.1214,55.2917 61.12,55.3294 61.119,55.3672 61.1184,55.405 61.1181,55.4428 61.1182,55.4806 61.1188,55.5184 61.1196,55.5562 61.1209,55.5939 61.1225,55.6317 61.1246,55.6694 61.127,55.7072 61.1297,55.7449 61.1329,55.7825 61.1364,55.8202 61.1403,55.8577 61.1446,55.8953 61.1492,55.9328 61.1543,55.9703 61.1597,56.0077 61.1654,56.045 61.1716,56.0823 61.1781,56.1195 61.185,56.1567 61.1923,56.1938 61.1999,56.2308 61.2079,56.2677 61.2163,56.3046 61.225,56.3414 61.2341,56.3781 61.2436,56.4146 61.2534,56.4511 61.2636,56.4875 61.2742,56.5238 61.2851,56.56 61.2964,56.5961 61.3081,56.632 61.3201,56.6679 61.3325,56.7036 61.3452,56.7392 61.3583,56.7746 61.3717,56.8099 61.3855,56.8451 61.3996,56.8802 61.4141,56.9151 61.429,56.9499 61.4441,56.9845 61.4597,57.0189 61.4755,57.0532 61.4918,57.0874 61.5083,57.1213 61.5252,57.1551 61.5424,57.1888 61.56,57.2222 61.5779,57.2555 61.5961,57.2886 61.6147,57.3216 61.6336,57.3543 61.6528,57.3868 61.6724,57.4192 61.6922,57.4513 61.7124,57.4833 61.7329,57.5151 61.7537,57.5466 61.7749,57.5779 61.7963,57.6091 61.8181,57.64 61.8401,57.6706 61.8625,57.7011 61.8852,57.7313 61.9082,57.7614 61.9314,57.7911 61.955,57.8207 61.9789,57.85 62.003,57.8791 62.0275,57.9079 62.0522,57.9365 62.0772,57.9648 62.1025,57.9929 62.1281,58.0207 62.154,58.0483 62.1801,58.0756 62.2065,58.1026 62.2332,58.1294 62.2601,58.1559 62.2873,58.1821 62.3148,58.2081 62.3425,58.2338 62.3705,58.2592 62.3987,58.2843 62.4272,58.3092 62.4559,58.3337 62.4849,58.358 62.5141,58.382 62.5435,58.4057 62.5732,58.4291 62.6031,58.4522 62.6333,58.475 62.6637,58.4975 62.6943,58.5196 62.7251,58.5415 62.7561,58.5631 62.7874,58.5843 62.8188,58.6053 62.8505,58.6259 62.8824,58.6462 62.9144,58.6662 62.9467,58.6859 62.9792,58.7052 63.0118,58.7243 63.0447,58.743 63.0777,58.7613 63.1109,58.7794 63.1443,58.7971 63.1779,58.8144 63.2116,58.8315 63.2455,58.8481 63.2796,58.8645 63.3139,58.8805 63.3483,58.8962 63.3828,58.9115 63.4175,58.9265 63.4524,58.9411 63.4874,58.9554 63.5225,58.9693 63.5578,58.9829 63.5932,58.9961 63.6287,59.009 63.6644,59.0215 63.7002,59.0336 63.7361,59.0454 63.7721,59.0569 63.8082,59.0679 63.8445,59.0786 63.8808,59.089 63.9173,59.099 63.9538,59.1086 63.9905,59.1179 64.0272,59.1267 64.064,59.1353 64.1009,59.1434 64.1379,59.1512 64.175,59.1586 64.2121,59.1657 64.2493,59.1723 64.2866,59.1786 64.3239,59.1845 64.3613,59.1901 64.3987,59.1953 64.4362,59.2001 64.4738,59.2045 64.5113,59.2086 64.5489,59.2122 64.5866,59.2155 64.6243,59.2184 64.662,59.221 64.6997,59.2232 64.7375,59.225 64.7752,59.2264 64.813,59.2274 64.8508,59.2281 64.8886,59.2283 64.9264,59.2282 64.9642,59.2278 65.002,59.2269 65.0398,59.2257 65.0775,59.2241 65.1153,59.2221 65.153,59.2197 65.1907,59.217 65.2283,59.2139 65.266,59.2104 65.3036,59.2065 65.3411,59.2022 65.3786,59.1976 65.4161,59.1926 65.4535,59.1872 65.4909,59.1815 65.5282,59.1754 65.5654,59.1689 65.6026,59.162 65.6397,59.1548 65.6767,59.1472 65.7136,59.1392 65.7505,59.1309 65.7873,59.1222 65.824,59.1131 65.8606,59.1036 65.8971,59.0938 65.9335,59.0836 65.9697,59.0731 66.0059,59.0622 66.042,59.0509 66.078,59.0393 66.1138,59.0273 66.1495,59.015 66.1851,59.0023 66.2206,58.9892 66.256,58.9758 66.2912,58.9621 66.3262,58.948 66.3611,58.9335 66.3959,58.9187 66.4305,58.9035 66.465,58.888 66.4993,58.8722 66.5335,58.856 66.5675,58.8395 66.6013,58.8226 66.6349,58.8054 66.6684,58.7879 66.7017,58.77 66.7348,58.7518 66.7678,58.7332 66.8005,58.7144 66.8331,58.6952 66.8654,58.6757 66.8976,58.6558 66.9296,58.6357 66.9614,58.6152 66.9929,58.5944 67.0243,58.5733 67.0554,58.5519 67.0863,58.5301 67.117,58.5081 67.1475,58.4857 67.1778,58.4631 67.2078,58.4401 67.2376,58.4169 67.2672,58.3933 67.2965,58.3695 67.3256,58.3454 67.3544,58.3209 67.383,58.2962 67.4114,58.2712 67.4395,58.246 67.4673,58.2204 67.4949,58.1946 67.5222,58.1685 67.5493,58.1421 67.5761,58.1154 67.6026,58.0885 67.6289,58.0613 67.6549,58.0339 67.6806,58.0062 67.706,57.9782 67.7312,57.95 67.756,57.9216 67.7806,57.8929 67.8049,57.8639 67.8289,57.8347 67.8526,57.8053 67.876,57.7756 67.8992,57.7457 67.922,57.7156 67.9445,57.6852 67.9667,57.6546 67.9886,57.6238 68.0102,57.5928 68.0315,57.5616 68.0525,57.5302 68.0731,57.4985 68.0935,57.4666 68.1135,57.4346 68.1332,57.4023 68.1525,57.3699 68.1716,57.3372 68.1903,57.3044 68.2087,57.2714 68.2268,57.2382 68.2445,57.2048 68.2619,57.1712 68.2789,57.1375 68.2956,57.1036 68.312,57.0696 68.3281,57.0353 68.3438,57.0009 68.3591,56.9664 68.3741,56.9317 68.3888,56.8969 68.4031,56.8619 68.417,56.8268 68.4306,56.7915 68.4439,56.7561 68.4568,56.7206 68.4693,56.6849 68.4815,56.6492 68.4933,56.6133 68.5048,56.5772 68.5159,56.5411 68.5266,56.5049 68.537,56.4685 68.547,56.4321 68.5567,56.3955 68.566,56.3589 68.5749,56.3222 68.5834,56.2854 68.5916,56.2485 68.5994,56.2115 68.6069,56.1744 68.6139,56.1373 68.6206,56.1001 68.627,56.0628 68.6329,56.0255 68.6385,55.9881 68.6437,55.9507 68.6485,55.9132 68.653,55.8757 68.6571,55.8381 68.6608,55.8005 68.6641,55.7629 68.667,55.7252 68.6696,55.6875 68.6718,55.6497 68.6736,55.612 68.6751,55.5742 68.6761,55.5364 68.6768,55.4987 68.6771,55.4609 68.6772,55.4488 68.677,55.411 68.6764,55.3732 68.6755,55.3355 68.6741,55.2977 68.6724,55.2599 68.6704,55.2222 68.6679,55.1845 68.6651,55.1468 68.6619,55.1091 68.6583,55.0715 68.6543,55.0339 68.65,54.9964 68.6453,54.9589 68.6402,54.9214 68.6347,54.884 68.6289,54.8467 68.6227,54.8094 68.6161,54.7722 68.6091,54.735 68.6018,54.6979 68.5941,54.6609 68.5861,54.624 68.5776,54.5872 68.5688,54.5504 68.5597,54.5137 68.5501,54.4772 68.5402,54.4407 68.53,54.4043 68.5193,54.3681 68.5084,54.3319 68.497,54.2958 68.4853,54.2599 68.4732,54.2241 68.4608,54.1884 68.448,54.1528 68.4349,54.1174 68.4214,54.0821 68.4076,54.0469 68.3934,54.0119 68.3788,53.977 68.3639,53.9423 68.3487,53.9077 68.3331,53.8732 68.3172,53.839 68.3009,53.8049 68.2843,53.7709 68.2673,53.7371 68.2501,53.7035 68.2324,53.6701 68.2145,53.6368 68.1962,53.6037 68.1776,53.5708 68.1586,53.5381 68.1394,53.5056 68.1198,53.4733 68.0999,53.4412 68.0796,53.4093 68.0591,53.3775 68.0382,53.346 68.017,53.3147 67.9955,53.2837 67.9737,53.2528 67.9516,53.2221 67.9292,53.1917 67.9065,53.1615 67.8834,53.1315 67.8601,53.1018 67.8365,53.0723 67.8126,53.043 67.7884,53.014 67.7639,52.9852 67.7391,52.9567 67.714,52.9284 67.6887,52.9003 67.6631,52.8725 67.6372,52.845 67.611,52.8178 67.5846,52.7908 67.5578,52.764 67.5309,52.7376 67.5036,52.7114 67.4761,52.6854 67.4483,52.6598 67.4203,52.6344 67.3921,52.6093 67.3635,52.5845 67.3348,52.56 67.3058,52.5358 67.2765,52.5119 67.247,52.4882 67.2173,52.4649 67.1874,52.4418 67.1572,52.4191 67.1268,52.3966 67.0961,52.3745 67.0653,52.3527 67.0342,52.3311 67.0029,52.3099 66.9714,52.289 66.9397,52.2685 66.9078,52.2482 66.8757,52.2283 66.8434,52.2086 66.8109,52.1893 66.7782,52.1704 66.7453,52.1517 66.7123,52.1334 66.679,52.1154 66.6456,52.0978 66.612,52.0805 66.5782,52.0635 66.5443,52.0469 66.5102,52.0306 66.4759,52.0146 66.4415,51.999 66.407,51.9837 66.3722,51.9688 66.3374,51.9542 66.3023,51.94 66.2672,51.9262 66.2319,51.9126 66.1965,51.8995 66.1609,51.8867 66.1252,51.8742 66.0894,51.8621 66.0535,51.8504 66.0174,51.839 65.9813,51.828 65.945,51.8173 65.9087,51.807 65.8722,51.7971 65.8356,51.7875 65.799,51.7783 65.7622,51.7695 65.7254,51.761 65.6885,51.753 65.6515,51.7452 65.6144,51.7379 65.5772,51.7309 65.54,51.7243 65.5028,51.718 65.4654,51.7122 65.428,51.7067 65.3906,51.7016 65.3531,51.6968 65.3155,51.6925 65.278,51.6885 65.2403,51.6849 65.2027,51.6816 65.165,51.6788 65.1273,51.6763 65.0895,51.6742 65.0518,51.6724 65.014,51.6711 64.9762,51.6701 64.9384,51.6695 64.9006,51.6693 64.8629,51.6695 64.8251,51.67 64.7873,51.6709 64.7495,51.6722 64.7117,51.6739 64.674,51.6759 64.6363,51.6783 64.5986,51.6811 64.5609,51.6843 64.5233,51.6879 64.4857,51.6918 64.4482,51.6961 64.4107,51.7008 64.3732,51.7059 64.3358,51.7113 64.2985,51.7171 64.2612,51.7233 64.224,51.7298 64.1868,51.7367 64.1497,51.744 64.1127,51.7517 64.0758,51.7597 64.0389,51.7681 64.0022,51.7769 63.9655,51.786 63.9289,51.7955 63.8924,51.8054 63.856,51.8157 63.8198,51.8263 63.7836,51.8372 63.7475,51.8485 63.7116,51.8602 63.6758,51.8723 63.6401,51.8846 63.6045,51.8974 63.569,51.9105 63.5337,51.924 63.4985,51.9378 63.4635,51.952 63.4286,51.9665 63.3938,51.9813 63.3592,51.9965 63.3248,52.0121 63.2905,52.028 63.2564,52.0442 63.2224,52.0608 63.1886,52.0777 63.155,52.095 63.1216,52.1126 63.0883,52.1305 63.0552,52.1488 63.0223,52.1674 62.9896,52.1863 62.957,52.2055 62.9247,52.2251 62.8926,52.245 62.8606,52.2652 62.8289,52.2857 62.7974,52.3066 62.766,52.3277 62.7349,52.3492 62.704,52.371 62.6734,52.3931 62.6429,52.4155 62.6127,52.4382 62.5827,52.4612 62.553,52.4845 62.5234,52.5081 62.4941,52.532 62.4651,52.5561 62.4363,52.5806 62.4077,52.6054 62.3794,52.6304 62.3514,52.6557 62.3236,52.6813 62.296,52.7072 62.2687,52.7334 62.2417,52.7598 62.215,52.7865 62.1885,52.8134 62.1623,52.8407 62.1363,52.8681 62.1106,52.8959 62.0852,52.9239 62.0601,52.9521 62.0353,52.9806 62.0108,53.0094 61.9865,53.0384 61.9626,53.0676 61.9389,53.0971 61.9155,53.1268 61.8925,53.1567 61.8697,53.1869 61.8472,53.2173 61.8251,53.2479 61.8032,53.2787 61.7817,53.3098 61.7604,53.341 61.7395,53.3725 61.7189,53.4042 61.6986,53.4361 61.6786,53.4682 61.659,53.5005 61.6397,53.533 61.6207,53.5656 61.602,53.5985 61.5837,53.6315 61.5657,53.6648 61.548,53.6982 61.5307,53.7318 61.5137,53.7655 61.497,53.7994 61.4807,53.8335 61.4647,53.8678 61.4491,53.9022 61.4338,53.9367 61.4188,53.9715 61.4042,54.0063 61.39,54.0413 61.3761,54.0765 61.3625,54.1118 61.3493,54.1472 61.3365,54.1827 61.324,54.2184 61.3119,54.2542 61.3001,54.2901 61.2887,54.3261 61.2777,54.3623 61.267,54.3985 61.2566,54.4349 61.2467,54.4714 61.2371,54.5079 61.2279,54.5446 61.219,54.5813 61.2105,54.6181 61.2024,54.6551 61.1946,54.692 61.1873,54.7291 61.1803,54.7663 61.1736,54.8035 61.1673,54.8407 61.1615,54.8781 61.1559,54.9155 61.1508,54.9529 61.146,54.9904 61.1416,55.0279 61.1376,55.0655 61.134,55.1031 61.1307,55.1408 61.1278,55.1785 61.1253,55.2162 61.1231,55.2539 61.1214,55.2917 61.12,55.3294 61.119,55.3672 61.1184,55.405 61.1181,55.4428 61.1182,55.4806 61.1188,55.5184 61.1196,55.5562 61.1209,55.5939 61.1225,55.6317 61.1246,55.6694 61.127,55.7072 61.1297,55.7449 61.1329,55.7825 61.1364,55.8202 61.1403,55.8577 61.1446,55.8953 61.1492,55.9328 61.1543,55.9703 61.1597,56.0077 61.1654,56.045 61.1716,56.0823 61.1781,56.1195 61.185,56.1567 61.1923,56.1938 61.1999,56.2308 61.2079,56.2677 61.2163,56.3046 61.225,56.3414 61.2341,56.3781 61.2436,56.4146 61.2534,56.4511 61.2636,56.4875 61.2742,56.5238 61.2851,56.56 61.2964,56.5961 61.3081,56.632 61.3201,56.6679 61.3325,56.7036 61.3452,56.7392 61.3583,56.7746 61.3717,56.8099 61.3855,56.8451 61.3996,56.8802 61.4141,56.9151 61.429,56.9499 61.4441,56.9845 61.4597,57.0189 61.4755,57.0532 61.4918,57.0874 61.5083,57.1213 61.5252,57.1551 61.5424,57.1888 61.56,57.2222 61.5779,57.2555 61.5961,57.2886 61.6147,57.3216 61.6336,57.3543 61.6528,57.3868 61.6724,57.4192 61.6922,57.4513 61.7124,57.4833 61.7329,57.5151 61.7537,57.5466 61.7749,57.5779 61.7963,57.6091 61.8181,57.64 61.8401,57.6706 61.8625,57.7011 61.8852,57.7313 61.9082,57.7614 61.9314,57.7911 61.955,57.8207 61.9789,57.85 62.003,57.8791 62.0275,57.9079 62.0522,57.9365 62.0772,57.9648 62.1025,57.9929 62.1281,58.0207 62.154,58.0483 62.1801,58.0756 62.2065,58.1026 62.2332,58.1294 62.2601,58.1559 62.2873,58.1821 62.3148,58.2081 62.3425,58.2338 62.3705,58.2592 62.3987,58.2843 62.4272,58.3092 62.4559,58.3337 62.4849,58.358 62.5141,58.382 62.5435,58.4057 62.5732,58.4291 62.6031,58.4522 62.6333,58.475 62.6637,58.4975 62.6943,58.5196 62.7251,58.5415 62.7561,58.5631 62.7874,58.5843 62.8188,58.6053 62.8505,58.6259 62.8824,58.6462 62.9144,58.6662 62.9467,58.6859 62.9792,58.7052 63.0118,58.7243 63.0447,58.743 63.0777,58.7613 63.1109,58.7794 63.1443,58.7971 63.1779,58.8144 63.2116,58.8315 63.2455,58.8481 63.2796,58.8645 63.3139,58.8805 63.3483,58.8962 63.3828,58.9115 63.4175,58.9265 63.4524,58.9411 63.4874,58.9554 63.5225,58.9693 63.5578,58.9829 63.5932,58.9961 63.6287,59.009 63.6644,59.0215 63.7002,59.0336 63.7361,59.0454 63.7721,59.0569 63.8082,59.0679 63.8445,59.0786 63.8808,59.089 63.9173,59.099 63.9538,59.1086 63.9905,59.1179 64.0272,59.1267 64.064,59.1353 64.1009,59.1434 64.1379,59.1512 64.175,59.1586 64.2121,59.1657 64.2493,59.1723 64.2866,59.1786 64.3239,59.1845 64.3613,59.1901 64.3987,59.1953 64.4362,59.2001 64.4738,59.2045 64.5113,59.2086 64.5489,59.2122 64.5866,59.2155 64.6243,59.2184 64.662,59.221 64.6997,59.2232 64.7375,59.225 64.7752,59.2264 64.813,59.2274 64.8508,59.2281 64.8886,59.2283 64.9264,59.2282 64.9642,59.2278 65.002,59.2269 65.0398,59.2257 65.0775,59.2241 65.1153,59.2221 65.153,59.2197 65.1907,59.217 65.2283,59.2139 65.266,59.2104 65.3036,59.2065 65.3411,59.2022 65.3786,59.1976 65.4161,59.1926 65.4535,59.1872 65.4909,59.1815 65.5282,59.1754 65.5654,59.1689 65.6026,59.162 65.6397,59.1548 65.6767,59.1472 65.7136,59.1392 65.7505,59.1309 65.7873,59.1222 65.824,59.1131 65.8606,59.1036 65.8971,59.0938 65.9335,59.0836 65.9697,59.0731 66.0059,59.0622 66.042,59.0509 66.078,59.0393 66.1138,59.0273 66.1495,59.015 66.1851,59.0023 66.2206,58.9892 66.256,58.9758 66.2912,58.9621 66.3262,58.948 66.3611,58.9335 66.3959,58.9187 66.4305,58.9035 66.465,58.888 66.4993,58.8722 66.5335,58.856 66.5675,58.8395 66.6013,58.8226 66.6349,58.8054 66.6684,58.7879 66.7017,58.77 66.7348,58.7518 66.7678,58.7332 66.8005,58.7144 66.8331,58.6952 66.8654,58.6757 66.8976,58.6558 66.9296,58.6357 66.9614,58.6152 66.9929,58.5944 67.0243,58.5733 67.0554,58.5519 67.0863,58.5301 67.117,58.5081 67.1475,58.4857 67.1778,58.4631 67.2078,58.4401 67.2376,58.4169 67.2672,58.3933 67.2965,58.3695 67.3256,58.3454 67.3544,58.3209 67.383,58.2962 67.4114,58.2712 67.4395,58.246 67.4673,58.2204 67.4949,58.1946 67.5222,58.1685 67.5493,58.1421 67.5761,58.1154 67.6026,58.0885 67.6289,58.0613 67.6549,58.0339 67.6806,58.0062 67.706,57.9782 67.7312,57.95 67.756,57.9216 67.7806,57.8929 67.8049,57.8639 67.8289,57.8347 67.8526,57.8053 67.876,57.7756 67.8992,57.7457 67.922,57.7156 67.9445,57.6852 67.9667,57.6546 67.9886,57.6238 68.0102,57.5928 68.0315,57.5616 68.0525,57.5302 68.0731,57.4985 68.0935,57.4666 68.1135,57.4346 68.1332,57.4023 68.1525,57.3699 68.1716,57.3372 68.1903,57.3044 68.2087,57.2714 68.2268,57.2382 68.2445,57.2048 68.2619,57.1712 68.2789,57.1375 68.2956,57.1036 68.312,57.0696 68.3281,57.0353 68.3438,57.0009 68.3591,56.9664 68.3741,56.9317 68.3888,56.8969 68.4031,56.8619 68.417,56.8268 68.4306,56.7915 68.4439,56.7561 68.4568,56.7206 68.4693,56.6849 68.4815,56.6492 68.4933,56.6133 68.5048,56.5772 68.5159,56.5411 68.5266,56.5049 68.537,56.4685 68.547,56.4321 68.5567,56.3955 68.566,56.3589 68.5749,56.3222 68.5834,56.2854 68.5916,56.2485 68.5994,56.2115 68.6069,56.1744 68.6139,56.1373 68.6206,56.1001 68.627,56.0628 68.6329,56.0255 68.6385,55.9881 68.6437,55.9507 68.6485,55.9132 68.653,55.8757 68.6571,55.8381 68.6608,55.8005 68.6641,55.7629 68.667,55.7252 68.6696,55.6875 68.6718,55.6497 68.6736,55.612 68.6751,55.5742 68.6761,55.5364 68.6768,55.4987 68.6771,55.4609 " />
<polygon points="4.4252,4.4252 4.4252,46 46,46 46,4.4252 4.4252,4.4252 87.5748,4.4252 87.5748,87.5748 87.5748,46 46,46 46,87.5748 87.5748,87.5748 4.4252,87.5748 " />
<polygon points="27.1024,55.4488 27.1022,55.411 27.1016,55.3732 27.1007,55.3355 27.0993,55.2977 27.0976,55.2599 27.0956,55.2222 27.0931,55.1845 27.0903,55.1468 27.0871,55.1091 27.0835,55.0715 27.0795,55.0339 27.0752,54.9964 27.0705,54.9589 27.0654,54.9214 27.0599,54.884 27.0541,54.8467 27.0479,54.8094 27.0413,54.7722 27.0343,54.735 27.027,54.6979 27.0193,54.6609 27.0113,54.624 27.0028,54.5872 26.994,54.5504 26.9849,54.5137 26.9753,54.4772 26.9654,54.4407 26.9552,54.4043 26.9445,54.3681 26.9336,54.3319 26.9222,54.2958 26.9105,54.2599 26.8984,54.2241 26.886,54.1884 26.8732,54.1528 26.8601,54.1174 26.8466,54.0821 26.8327,54.0469 26.8186,54.0119 26.804,53.977 26.7891,53.9423 26.7739,53.9077 26.7583,53.8732 26.7424,53.839 26.7261,53.8049 26.7095,53.7709 26.6925,53.7371 26.6753,53.7035 26.6576,53.6701 26.6397,53.6368 26.6214,53.6037 26.6028,53.5708 26.5838,53.5381 26.5646,53.5056 26.545,53.4733 26.5251,53.4412 26.5048,53.4093 26.4843,53.3775 26.4634,53.346 26.4422,53.3147 26.4207,53.2837 26.3989,53.2528 26.3768,53.2221 26.3544,53.1917 26.3317,53.1615 26.3086,53.1315 26.2853,53.1018 26.2617,53.0723 26.2378,53.043 26.2136,53.014 26.1891,52.9852 26.1643,52.9567 26.1392,52.9284 26.1139,52.9003 26.0883,52.8725 26.0624,52.845 26.0362,52.8178 26.0098,52.7908 25.983,52.764 25.9561,52.7376 25.9288,52.7114 25.9013,52.6854 25.8735,52.6598 25.8455,52.6344 25.8173,52.6093 25.7887,52.5845 25.76,52.56 25.731,52.5358 25.7017,52.5119 25.6722,52.4882 25.6425,52.4649 25.6125,52.4418 25.5824,52.4191 25.552,52.3966 25.5213,52.3745 25.4905,52.3527 25.4594,52.3311 25.4281,52.3099 25.3966,52.289 25.3649,52.2685 25.333,52.2482 25.3009,52.2283 25.2686,52.2086 25.2361,52.1893 25.2034,52.1704 25.1705,52.1517 25.1375,52.1334 25.1042,52.1154 25.0708,52.0978 25.0372,52.0805 25.0034,52.0635 24.9695,52.0469 24.9354,52.0306 24.9011,52.0146 24.8667,51.999 24.8321,51.9837 24.7974,51.9688 24.7626,51.9542 24.7275,51.94 24.6924,51.9262 24.6571,51.9126 24.6217,51.8995 24.5861,51.8867 24.5504,51.8742 24.5146,51.8621 24.4787,51.8504 24.4426,51.839 24.4065,51.828 24.3702,51.8173 24.3339,51.807 24.2974,51.7971 24.2608,51.7875 24.2242,51.7783 24.1874,51.7695 24.1506,51.761 24.1137,51.753 24.0767,51.7452 24.0396,51.7379 24.0024,51.7309 23.9652,51.7243 23.928,51.718 23.8906,51.7122 23.8532,51.7067 23.8158,51.7016 23.7783,51.6968 23.7407,51.6925 23.7032,51.6885 23.6655,51.6849 23.6279,51.6816 23.5902,51.6788 23.5525,51.6763 23.5147,51.6742 23.477,51.6724 23.4392,51.6711 23.4014,51.6701 23.3636,51.6695 23.3258,51.6693 23.288,51.6695 23.2503,51.67 23.2125,51.6709 23.1747,51.6722 23.1369,51.6739 23.0992,51.6759 23.0615,51.6783 23.0238,51.6811 22.9861,51.6843 22.9485,51.6879 22.9109,51.6918 22.8734,51.6961 22.8359,51.7008 22.7984,51.7059 22.761,51.7113 22.7237,51.7171 22.6864,51.7233 22.6491,51.7298 22.612,51.7367 22.5749,51.744 22.5379,51.7517 22.501,51.7597 22.4641,51.7681 22.4274,51.7769 22.3907,51.786 22.3541,51.7955 22.3176,51.8054 22.2812,51.8157 22.245,51.8263 22.2088,51.8372 22.1727,51.8485 22.1368,51.8602 22.101,51.8723 22.0652,51.8846 22.0297,51.8974 21.9942,51.9105 21.9589,51.924 21.9237,51.9378 21.8887,51.952 21.8538,51.9665 21.819,51.9813 21.7844,51.9965 21.75,52.0121 21.7157,52.028 21.6816,52.0442 21.6476,52.0608 21.6138,52.0777 21.5802,52.095 21.5467,52.1126 21.5135,52.1305 21.4804,52.1488 21.4475,52.1674 21.4148,52.1863 21.3822,52.2055 21.3499,52.2251 21.3178,52.245 21.2858,52.2652 21.2541,52.2857 21.2226,52.3066 21.1912,52.3277 21.1601,52.3492 21.1292,52.371 21.0986,52.3931 21.0681,52.4155 21.0379,52.4382 21.0079,52.4612 20.9782,52.4845 20.9486,52.5081 20.9193,52.532 20.8903,52.5561 20.8615,52.5806 20.8329,52.6054 20.8046,52.6304 20.7766,52.6557 20.7488,52.6813 20.7212,52.7072 20.6939,52.7334 20.6669,52.7598 20.6402,52.7865 20.6137,52.8134 20.5874,52.8407 20.5615,52.8681 20.5358,52.8959 20.5104,52.9239 20.4853,52.9521 20.4605,52.9806 20.436,53.0094 20.4117,53.0384 20.3878,53.0676 20.3641,53.0971 20.3407,53.1268 20.3177,53.1567 20.2949,53.1869 20.2724,53.2173 20.2503,53.2479 20.2284,53.2787 20.2069,53.3098 20.1856,53.341 20.1647,53.3725 20.1441,53.4042 20.1238,53.4361 20.1038,53.4682 20.0842,53.5005 20.0649,53.533 20.0459,53.5656 20.0272,53.5985 20.0089,53.6315 19.9909,53.6648 19.9732,53.6982 19.9559,53.7318 19.9389,53.7655 19.9222,53.7994 19.9059,53.8335 19.8899,53.8678 19.8742,53.9022 19.859,53.9367 19.844,53.9715 19.8294,54.0063 19.8152,54.0413 19.8013,54.0765 19.7877,54.1118 19.7745,54.1472 19.7617,54.1827 19.7492,54.2184 19.7371,54.2542 19.7253,54.2901 19.7139,54.3261 19.7029,54.3623 19.6922,54.3985 19.6818,54.4349 19.6719,54.4714 19.6623,54.5079 19.6531,54.5446 19.6442,54.5813 19.6357,54.6181 19.6276,54.6551 19.6198,54.692 19.6125,54.7291 19.6055,54.7663 19.5988,54.8035 19.5925,54.8407 19.5867,54.8781 19.5811,54.9155 19.576,54.9529 19.5712,54.9904 19.5668,55.0279 19.5628,55.0655 19.5591,55.1031 19.5559,55.1408 19.553,55.1785 19.5505,55.2162 19.5483,55.2539 19.5466,55.2917 19.5452,55.3294 19.5442,55.3672 19.5436,55.405 19.5433,55.4428 19.5434,55.4806 19.5439,55.5184 19.5448,55.5562 19.5461,55.5939 19.5477,55.6317 19.5498,55.6694 19.5521,55.7072 19.5549,55.7449 19.5581,55.7825 19.5616,55.8202 19.5655,55.8577 19.5698,55.8953 19.5744,55.9328 19.5795,55.9703 19.5849,56.0077 19.5906,56.045 19.5968,56.0823 19.6033,56.1195 19.6102,56.1567 19.6175,56.1938 19.6251,56.2308 19.6331,56.2677 19.6415,56.3046 19.6502,56.3414 19.6593,56.3781 19.6688,56.4146 19.6786,56.4511 19.6888,56.4875 19.6994,56.5238 19.7103,56.56 19.7216,56.5961 19.7333,56.632 19.7453,56.6679 19.7577,56.7036 19.7704,56.7392 19.7835,56.7746 19.7969,56.8099 19.8107,56.8451 19.8248,56.8802 19.8393,56.9151 19.8542,56.9499 19.8693,56.9845 19.8849,57.0189 19.9007,57.0532 19.917,57.0874 19.9335,57.1213 19.9504,57.1551 19.9676,57.1888 19.9852,57.2222 20.0031,57.2555 20.0213,57.2886 20.0399,57.3216 20.0588,57.3543 20.078,57.3868 20.0976,57.4192 20.1174,57.4513 20.1376,57.4833 20.1581,57.5151 20.1789,57.5466 20.2001,57.5779 20.2215,57.6091 20.2433,57.64 20.2653,57.6706 20.2877,57.7011 20.3104,57.7313 20.3334,57.7614 20.3566,57.7911 20.3802,57.8207 20.4041,57.85 20.4282,57.8791 20.4527,57.9079 20.4774,57.9365 20.5024,57.9648 20.5277,57.9929 20.5533,58.0207 20.5792,58.0483 20.6053,58.0756 20.6317,58.1026 20.6584,58.1294 20.6853,58.1559 20.7125,58.1821 20.74,58.2081 20.7677,58.2338 20.7957,58.2592 20.8239,58.2843 20.8524,58.3092 20.8811,58.3337 20.9101,58.358 20.9393,58.382 20.9687,58.4057 20.9984,58.4291 21.0283,58.4522 21.0585,58.475 21.0889,58.4975 21.1195,58.5196 21.1503,58.5415 21.1813,58.5631 21.2126,58.5843 21.244,58.6053 21.2757,58.6259 21.3076,58.6462 21.3396,58.6662 21.3719,58.6859 21.4044,58.7052 21.437,58.7243 21.4699,58.743 21.5029,58.7613 21.5361,58.7794 21.5695,58.7971 21.6031,58.8144 21.6368,58.8315 21.6707,58.8481 21.7048,58.8645 21.7391,58.8805 21.7735,58.8962 21.808,58.9115 21.8427,58.9265 21.8776,58.9411 21.9125,58.9554 21.9477,58.9693 21.983,58.9829 22.0184,58.9961 22.0539,59.009 22.0896,59.0215 22.1254,59.0336 22.1613,59.0454 22.1973,59.0569 22.2334,59.0679 22.2697,59.0786 22.306,59.089 22.3425,59.099 22.379,59.1086 22.4157,59.1179 22.4524,59.1267 22.4892,59.1353 22.5261,59.1434 22.5631,59.1512 22.6002,59.1586 22.6373,59.1657 22.6745,59.1723 22.7118,59.1786 22.7491,59.1845 22.7865,59.1901 22.8239,59.1953 22.8614,59.2001 22.899,59.2045 22.9365,59.2086 22.9741,59.2122 23.0118,59.2155 23.0495,59.2184 23.0872,59.221 23.1249,59.2232 23.1627,59.225 23.2004,59.2264 23.2382,59.2274 23.276,59.2281 23.3138,59.2283 23.3516,59.2282 23.3894,59.2278 23.4272,59.2269 23.465,59.2257 23.5027,59.2241 23.5405,59.2221 23.5782,59.2197 23.6159,59.217 23.6535,59.2139 23.6912,59.2104 23.7288,59.2065 23.7663,59.2022 23.8038,59.1976 23.8413,59.1926 23.8787,59.1872 23.9161,59.1815 23.9534,59.1754 23.9906,59.1689 24.0278,59.162 24.0649,59.1548 24.1019,59.1472 24.1388,59.1392 24.1757,59.1309 24.2125,59.1222 24.2492,59.1131 24.2857,59.1036 24.3222,59.0938 24.3586,59.0836 24.3949,59.0731 24.4311,59.0622 24.4672,59.0509 24.5032,59.0393 24.539,59.0273 24.5747,59.015 24.6103,59.0023 24.6458,58.9892 24.6811,58.9758 24.7163,58.9621 24.7514,58.948 24.7863,58.9335 24.8211,58.9187 24.8557,58.9035 24.8902,58.888 24.9245,58.8722 24.9587,58.856 24.9927,58.8395 25.0265,58.8226 25.0601,58.8054 25.0936,58.7879 25.1269,58.77 25.16,58.7518 25.193,58.7332 25.2257,58.7144 25.2583,58.6952 25.2906,58.6757 25.3228,58.6558 25.3548,58.6357 25.3865,58.6152 25.4181,58.5944 25.4495,58.5733 25.4806,58.5519 25.5115,58.5301 25.5422,58.5081 25.5727,58.4857 25.603,58.4631 25.633,58.4401 25.6628,58.4169 25.6923,58.3933 25.7217,58.3695 25.7508,58.3454 25.7796,58.3209 25.8082,58.2962 25.8366,58.2712 25.8646,58.246 25.8925,58.2204 25.9201,58.1946 25.9474,58.1685 25.9745,58.1421 26.0013,58.1154 26.0278,58.0885 26.0541,58.0613 26.0801,58.0339 26.1058,58.0062 26.1312,57.9782 26.1564,57.95 26.1812,57.9216 26.2058,57.8929 26.2301,57.8639 26.2541,57.8347 26.2778,57.8053 26.3012,57.7756 26.3244,57.7457 26.3472,57.7156 26.3697,57.6852 26.3919,57.6546 26.4138,57.6238 26.4354,57.5928 26.4567,57.5616 26.4777,57.5302 26.4983,57.4985 26.5186,57.4666 26.5387,57.4346 26.5584,57.4023 26.5777,57.3699 26.5968,57.3372 26.6155,57.3044 26.6339,57.2714 26.652,57.2382 26.6697,57.2048 26.6871,57.1712 26.7041,57.1375 26.7208,57.1036 26.7372,57.0696 26.7533,57.0353 26.769,57.0009 26.7843,56.9664 26.7993,56.9317 26.814,56.8969 26.8283,56.8619 26.8422,56.8268 26.8558,56.7915 26.8691,56.7561 26.882,56.7206 26.8945,56.6849 26.9067,56.6492 26.9185,56.6133 26.93,56.5772 26.9411,56.5411 26.9518,56.5049 26.9622,56.4685 26.9722,56.4321 26.9819,56.3955 26.9912,56.3589 27.0001,56.3222 27.0086,56.2854 27.0168,56.2485 27.0246,56.2115 27.0321,56.1744 27.0391,56.1373 27.0458,56.1001 27.0522,56.0628 27.0581,56.0255 27.0637,55.9881 27.0689,55.9507 27.0737,55.9132 27.0782,55.8757 27.0823,55.8381 27.086,55.8005 27.0893,55.7629 27.0922,55.7252 27.0948,55.6875 27.097,55.6497 27.0988,55.612 27.1003,55.5742 27.1013,55.5364 27.102,55.4987 27.1023,55.4609 " />
<polygon points="85.685,72.4567 85.6849,72.4189 85.6843,72.3811 85.6833,72.3433 85.682,72.3056 85.6803,72.2678 85.6782,72.2301 85.6758,72.1923 85.673,72.1547 85.6697,72.117 85.6662,72.0794 85.6622,72.0418 85.6579,72.0042 85.6531,71.9667 85.6481,71.9293 85.6426,71.8919 85.6368,71.8545 85.6306,71.8173 85.624,71.78 85.617,71.7429 85.6097,71.7058 85.602,71.6688 85.5939,71.6319 85.5855,71.595 85.5767,71.5583 85.5675,71.5216 85.558,71.485 85.5481,71.4486 85.5378,71.4122 85.5272,71.3759 85.5162,71.3398 85.5049,71.3037 85.4932,71.2678 85.4811,71.232 85.4687,71.1963 85.4559,71.1607 85.4428,71.1253 85.4293,71.09 85.4154,71.0548 85.4012,71.0198 85.3867,70.9849 85.3718,70.9501 85.3566,70.9156 85.341,70.8811 85.325,70.8468 85.3088,70.8127 85.2922,70.7788 85.2752,70.745 85.2579,70.7114 85.2403,70.6779 85.2224,70.6447 85.2041,70.6116 85.1855,70.5787 85.1665,70.546 85.1472,70.5135 85.1277,70.4812 85.1077,70.4491 85.0875,70.4171 85.0669,70.3854 85.0461,70.3539 85.0249,70.3226 85.0034,70.2915 84.9816,70.2607 84.9595,70.23 84.9371,70.1996 84.9143,70.1694 84.8913,70.1394 84.868,70.1097 84.8444,70.0802 84.8205,70.0509 84.7963,70.0219 84.7718,69.9931 84.747,69.9645 84.7219,69.9362 84.6966,69.9082 84.671,69.8804 84.645,69.8529 84.6189,69.8256 84.5924,69.7986 84.5657,69.7719 84.5387,69.7454 84.5115,69.7192 84.484,69.6933 84.4562,69.6677 84.4282,69.6423 84.3999,69.6172 84.3714,69.5924 84.3427,69.5679 84.3136,69.5437 84.2844,69.5197 84.2549,69.4961 84.2252,69.4727 84.1952,69.4497 84.165,69.4269 84.1346,69.4045 84.104,69.3824 84.0731,69.3605 84.0421,69.339 84.0108,69.3178 83.9793,69.2969 83.9476,69.2763 83.9157,69.2561 83.8836,69.2361 83.8513,69.2165 83.8188,69.1972 83.7861,69.1782 83.7532,69.1596 83.7202,69.1413 83.6869,69.1233 83.6535,69.1057 83.6199,69.0884 83.5861,69.0714 83.5522,69.0547 83.5181,69.0384 83.4838,69.0225 83.4494,69.0069 83.4148,68.9916 83.3801,68.9767 83.3452,68.9621 83.3102,68.9479 83.2751,68.934 83.2398,68.9205 83.2043,68.9073 83.1688,68.8945 83.1331,68.8821 83.0973,68.87 83.0614,68.8582 83.0253,68.8469 82.9892,68.8358 82.9529,68.8252 82.9165,68.8149 82.8801,68.805 82.8435,68.7954 82.8068,68.7862 82.7701,68.7774 82.7333,68.7689 82.6963,68.7608 82.6593,68.7531 82.6223,68.7458 82.5851,68.7388 82.5479,68.7322 82.5106,68.7259 82.4733,68.7201 82.4359,68.7146 82.3985,68.7094 82.361,68.7047 82.3234,68.7003 82.2858,68.6963 82.2482,68.6927 82.2106,68.6895 82.1729,68.6866 82.1352,68.6841 82.0974,68.682 82.0597,68.6803 82.0219,68.679 81.9841,68.678 81.9463,68.6774 81.9085,68.6772 81.8707,68.6773 81.8329,68.6779 81.7952,68.6788 81.7574,68.6801 81.7196,68.6817 81.6819,68.6838 81.6442,68.6862 81.6065,68.689 81.5688,68.6922 81.5312,68.6957 81.4936,68.6997 81.456,68.704 81.4185,68.7087 81.3811,68.7137 81.3437,68.7192 81.3063,68.725 81.269,68.7311 81.2318,68.7377 81.1947,68.7446 81.1576,68.7519 81.1206,68.7596 81.0836,68.7676 81.0468,68.776 81.01,68.7848 80.9734,68.7939 80.9368,68.8034 80.9003,68.8133 80.8639,68.8235 80.8276,68.8341 80.7915,68.8451 80.7554,68.8564 80.7195,68.8681 80.6836,68.8801 80.6479,68.8925 80.6123,68.9053 80.5769,68.9184 80.5416,68.9318 80.5064,68.9457 80.4714,68.9598 80.4365,68.9743 80.4017,68.9892 80.3671,69.0044 80.3327,69.02 80.2984,69.0359 80.2643,69.0521 80.2303,69.0687 80.1965,69.0856 80.1629,69.1029 80.1294,69.1205 80.0962,69.1384 80.0631,69.1567 80.0302,69.1753 79.9974,69.1942 79.9649,69.2134 79.9326,69.233 79.9004,69.2529 79.8685,69.2731 79.8368,69.2936 79.8052,69.3145 79.7739,69.3356 79.7428,69.3571 79.7119,69.3789 79.6813,69.401 79.6508,69.4234 79.6206,69.4461 79.5906,69.4691 79.5608,69.4923 79.5313,69.5159 79.502,69.5398 79.473,69.564 79.4442,69.5885 79.4156,69.6132 79.3873,69.6383 79.3592,69.6636 79.3314,69.6892 79.3039,69.7151 79.2766,69.7412 79.2496,69.7677 79.2228,69.7944 79.1963,69.8213 79.1701,69.8485 79.1442,69.876 79.1185,69.9038 79.0931,69.9318 79.068,69.96 79.0432,69.9885 79.0187,70.0173 78.9944,70.0462 78.9704,70.0755 78.9468,70.1049 78.9234,70.1346 78.9003,70.1646 78.8776,70.1948 78.8551,70.2251 78.8329,70.2558 78.8111,70.2866 78.7895,70.3176 78.7683,70.3489 78.7474,70.3804 78.7268,70.4121 78.7065,70.444 78.6865,70.4761 78.6669,70.5083 78.6476,70.5408 78.6286,70.5735 78.6099,70.6064 78.5916,70.6394 78.5735,70.6726 78.5559,70.706 78.5385,70.7396 78.5215,70.7734 78.5049,70.8073 78.4885,70.8414 78.4726,70.8756 78.4569,70.9101 78.4416,70.9446 78.4267,70.9793 78.4121,71.0142 78.3978,71.0492 78.3839,71.0843 78.3704,71.1196 78.3572,71.155 78.3444,71.1906 78.3319,71.2263 78.3197,71.2621 78.308,71.298 78.2966,71.334 78.2855,71.3702 78.2748,71.4064 78.2645,71.4428 78.2546,71.4792 78.245,71.5158 78.2357,71.5524 78.2269,71.5892 78.2184,71.626 78.2103,71.6629 78.2025,71.6999 78.1951,71.737 78.1881,71.7741 78.1815,71.8113 78.1752,71.8486 78.1693,71.8859 78.1638,71.9233 78.1587,71.9608 78.1539,71.9983 78.1495,72.0358 78.1455,72.0734 78.1418,72.111 78.1386,72.1487 78.1357,72.1863 78.1332,72.224 78.131,72.2618 78.1293,72.2995 78.1279,72.3373 78.1269,72.3751 78.1262,72.4129 78.126,72.4507 78.1261,72.4885 78.1266,72.5263 78.1275,72.564 78.1288,72.6018 78.1304,72.6396 78.1324,72.6773 78.1348,72.715 78.1376,72.7527 78.1407,72.7904 78.1443,72.828 78.1482,72.8656 78.1524,72.9032 78.1571,72.9407 78.1621,72.9781 78.1675,73.0155 78.1733,73.0529 78.1795,73.0902 78.186,73.1274 78.1929,73.1646 78.2001,73.2017 78.2078,73.2387 78.2158,73.2756 78.2241,73.3125 78.2329,73.3492 78.242,73.3859 78.2515,73.4225 78.2613,73.459 78.2715,73.4954 78.2821,73.5317 78.293,73.5679 78.3043,73.6039 78.316,73.6399 78.328,73.6757 78.3403,73.7114 78.3531,73.747 78.3661,73.7825 78.3796,73.8178 78.3934,73.853 78.4075,73.8881 78.422,73.923 78.4368,73.9577 78.452,73.9923 78.4675,74.0268 78.4834,74.0611 78.4996,74.0952 78.5162,74.1292 78.5331,74.163 78.5503,74.1967 78.5679,74.2301 78.5858,74.2634 78.604,74.2965 78.6226,74.3294 78.6415,74.3622 78.6607,74.3947 78.6802,74.4271 78.7001,74.4592 78.7203,74.4912 78.7408,74.5229 78.7616,74.5545 78.7827,74.5858 78.8042,74.6169 78.8259,74.6478 78.848,74.6785 78.8704,74.709 78.8931,74.7392 78.916,74.7692 78.9393,74.799 78.9629,74.8285 78.9867,74.8579 79.0109,74.8869 79.0353,74.9157 79.0601,74.9443 79.0851,74.9727 79.1104,75.0007 79.136,75.0286 79.1618,75.0561 79.188,75.0834 79.2144,75.1105 79.241,75.1373 79.268,75.1638 79.2952,75.19 79.3226,75.216 79.3504,75.2417 79.3783,75.2671 79.4066,75.2922 79.435,75.317 79.4638,75.3416 79.4927,75.3659 79.522,75.3899 79.5514,75.4136 79.5811,75.4369 79.611,75.46 79.6412,75.4828 79.6715,75.5053 79.7021,75.5275 79.7329,75.5494 79.764,75.571 79.7952,75.5922 79.8267,75.6132 79.8584,75.6338 79.8902,75.6541 79.9223,75.6741 79.9546,75.6938 79.987,75.7131 80.0197,75.7321 80.0526,75.7508 80.0856,75.7692 80.1188,75.7872 80.1522,75.8049 80.1858,75.8223 80.2195,75.8393 80.2534,75.856 80.2875,75.8724 80.3217,75.8884 80.3561,75.904 80.3907,75.9194 80.4254,75.9343 80.4602,75.949 80.4952,75.9632 80.5304,75.9772 80.5656,75.9907 80.601,76.004 80.6366,76.0168 80.6722,76.0293 80.708,76.0415 80.7439,76.0533 80.78,76.0647 80.8161,76.0758 80.8523,76.0865 80.8887,76.0969 80.9251,76.1069 80.9617,76.1165 80.9983,76.1257 81.0351,76.1346 81.0719,76.1431 81.1088,76.1513 81.1458,76.1591 81.1828,76.1665 81.22,76.1735 81.2572,76.1802 81.2945,76.1865 81.3318,76.1924 81.3692,76.198 81.4066,76.2031 81.4441,76.2079 81.4816,76.2124 81.5192,76.2164 81.5568,76.2201 81.5945,76.2234 81.6322,76.2263 81.6699,76.2289 81.7076,76.231 81.7453,76.2328 81.7831,76.2342 81.8209,76.2353 81.8587,76.2359 81.8965,76.2362 81.9343,76.2361 81.9721,76.2356 82.0099,76.2348 82.0476,76.2335 82.0854,76.2319 82.1231,76.23 82.1609,76.2276 82.1986,76.2248 82.2362,76.2217 82.2738,76.2182 82.3114,76.2144 82.349,76.2101 82.3865,76.2055 82.424,76.2005 82.4614,76.1951 82.4987,76.1894 82.536,76.1833 82.5733,76.1768 82.6104,76.1699 82.6475,76.1627 82.6846,76.1551 82.7215,76.1471 82.7584,76.1387 82.7951,76.13 82.8318,76.1209 82.8684,76.1115 82.9049,76.1017 82.9413,76.0915 82.9776,76.081 83.0138,76.0701 83.0499,76.0588 83.0859,76.0472 83.1217,76.0352 83.1574,76.0229 83.193,76.0102 83.2285,75.9971 83.2638,75.9837 83.299,75.9699 83.3341,75.9558 83.369,75.9414 83.4038,75.9266 83.4384,75.9114 83.4729,75.8959 83.5072,75.8801 83.5413,75.8639 83.5753,75.8473 83.6092,75.8305 83.6428,75.8133 83.6763,75.7957 83.7096,75.7779 83.7427,75.7597 83.7756,75.7411 83.8084,75.7223 83.841,75.7031 83.8733,75.6835 83.9055,75.6637 83.9375,75.6435 83.9692,75.6231 84.0008,75.6023 84.0321,75.5812 84.0633,75.5597 84.0942,75.538 84.1249,75.516 84.1554,75.4936 84.1856,75.471 84.2157,75.448 84.2455,75.4248 84.275,75.4012 84.3044,75.3774 84.3334,75.3532 84.3623,75.3288 84.3909,75.3041 84.4192,75.2791 84.4473,75.2538 84.4752,75.2283 84.5028,75.2024 84.5301,75.1763 84.5571,75.15 84.5839,75.1233 84.6105,75.0964 84.6367,75.0692 84.6627,75.0418 84.6884,75.0141 84.7139,74.9861 84.739,74.9579 84.7639,74.9294 84.7885,74.9007 84.8128,74.8718 84.8368,74.8426 84.8605,74.8132 84.8839,74.7835 84.907,74.7536 84.9298,74.7235 84.9524,74.6931 84.9746,74.6625 84.9965,74.6317 85.0181,74.6007 85.0394,74.5695 85.0603,74.538 85.081,74.5064 85.1013,74.4745 85.1213,74.4425 85.141,74.4102 85.1604,74.3777 85.1795,74.3451 85.1982,74.3123 85.2166,74.2793 85.2346,74.246 85.2524,74.2127 85.2697,74.1791 85.2868,74.1454 85.3035,74.1115 85.3199,74.0774 85.3359,74.0432 85.3516,74.0088 85.367,73.9743 85.382,73.9396 85.3966,73.9048 85.4109,73.8698 85.4249,73.8346 85.4385,73.7994 85.4518,73.764 85.4646,73.7285 85.4772,73.6928 85.4894,73.657 85.5012,73.6211 85.5127,73.5851 85.5238,73.549 85.5345,73.5128 85.5449,73.4764 85.5549,73.44 85.5645,73.4034 85.5738,73.3668 85.5827,73.3301 85.5913,73.2932 85.5995,73.2563 85.6073,73.2194 85.6147,73.1823 85.6218,73.1452 85.6285,73.108 85.6348,73.0707 85.6408,73.0334 85.6464,72.996 85.6516,72.9586 85.6564,72.9211 85.6609,72.8836 85.6649,72.846 85.6686,72.8084 85.672,72.7707 85.6749,72.7331 85.6775,72.6953 85.6797,72.6576 85.6815,72.6199 85.683,72.5821 85.684,72.5443 85.6847,72.5065 85.685,72.4687 " />
<polygon points="85.685,30.8819 85.6849,30.8441 85.6843,30.8063 85.6833,30.7685 85.682,30.7307 85.6803,30.693 85.6782,30.6553 85.6758,30.6175 85.673,30.5798 85.6697,30.5422 85.6662,30.5046 85.6622,30.467 85.6579,30.4294 85.6531,30.3919 85.6481,30.3545 85.6426,30.3171 85.6368,30.2797 85.6306,30.2425 85.624,30.2052 85.617,30.1681 85.6097,30.131 85.602,30.094 85.5939,30.0571 85.5855,30.0202 85.5767,29.9835 85.5675,29.9468 85.558,29.9102 85.5481,29.8738 85.5378,29.8374 85.5272,29.8011 85.5162,29.765 85.5049,29.7289 85.4932,29.693 85.4811,29.6572 85.4687,29.6215 85.4559,29.5859 85.4428,29.5505 85.4293,29.5152 85.4154,29.48 85.4012,29.445 85.3867,29.4101 85.3718,29.3753 85.3566,29.3407 85.341,29.3063 85.325,29.272 85.3088,29.2379 85.2922,29.204 85.2752,29.1702 85.2579,29.1366 85.2403,29.1031 85.2224,29.0699 85.2041,29.0368 85.1855,29.0039 85.1665,28.9712 85.1472,28.9387 85.1277,28.9064 85.1077,28.8743 85.0875,28.8423 85.0669,28.8106 85.0461,28.7791 85.0249,28.7478 85.0034,28.7167 84.9816,28.6859 84.9595,28.6552 84.9371,28.6248 84.9143,28.5946 84.8913,28.5646 84.868,28.5349 84.8444,28.5053 84.8205,28.4761 84.7963,28.4471 84.7718,28.4183 84.747,28.3897 84.7219,28.3614 84.6966,28.3334 84.671,28.3056 84.645,28.2781 84.6189,28.2508 84.5924,28.2238 84.5657,28.1971 84.5387,28.1706 84.5115,28.1444 84.484,28.1185 84.4562,28.0929 84.4282,28.0675 84.3999,28.0424 84.3714,28.0176 84.3427,27.9931 84.3136,27.9689 84.2844,27.9449 84.2549,27.9213 84.2252,27.8979 84.1952,27.8749 84.165,27.8521 84.1346,27.8297 84.104,27.8076 84.0731,27.7857 84.0421,27.7642 84.0108,27.743 83.9793,27.7221 83.9476,27.7015 83.9157,27.6813 83.8836,27.6613 83.8513,27.6417 83.8188,27.6224 83.7861,27.6034 83.7532,27.5848 83.7202,27.5665 83.6869,27.5485 83.6535,27.5309 83.6199,27.5135 83.5861,27.4966 83.5522,27.4799 83.5181,27.4636 83.4838,27.4477 83.4494,27.4321 83.4148,27.4168 83.3801,27.4019 83.3452,27.3873 83.3102,27.3731 83.2751,27.3592 83.2398,27.3457 83.2043,27.3325 83.1688,27.3197 83.1331,27.3073 83.0973,27.2952 83.0614,27.2834 83.0253,27.2721 82.9892,27.261 82.9529,27.2504 82.9165,27.2401 82.8801,27.2302 82.8435,27.2206 82.8068,27.2114 82.7701,27.2026 82.7333,27.1941 82.6963,27.186 82.6593,27.1783 82.6223,27.1709 82.5851,27.164 82.5479,27.1574 82.5106,27.1511 82.4733,27.1453 82.4359,27.1398 82.3985,27.1346 82.361,27.1299 82.3234,27.1255 82.2858,27.1215 82.2482,27.1179 82.2106,27.1147 82.1729,27.1118 82.1352,27.1093 82.0974,27.1072 82.0597,27.1055 82.0219,27.1042 81.9841,27.1032 81.9463,27.1026 81.9085,27.1024 81.8707,27.1025 81.8329,27.1031 81.7952,27.104 81.7574,27.1053 81.7196,27.1069 81.6819,27.109 81.6442,27.1114 81.6065,27.1142 81.5688,27.1174 81.5312,27.1209 81.4936,27.1249 81.456,27.1292 81.4185,27.1339 81.3811,27.1389 81.3437,27.1444 81.3063,27.1502 81.269,27.1563 81.2318,27.1629 81.1947,27.1698 81.1576,27.1771 81.1206,27.1848 81.0836,27.1928 81.0468,27.2012 81.01,27.21 80.9734,27.2191 80.9368,27.2286 80.9003,27.2385 80.8639,27.2487 80.8276,27.2593 80.7915,27.2703 80.7554,27.2816 80.7195,27.2933 80.6836,27.3053 80.6479,27.3177 80.6123,27.3305 80.5769,27.3436 80.5416,27.357 80.5064,27.3709 80.4714,27.385 80.4365,27.3995 80.4017,27.4144 80.3671,27.4296 80.3327,27.4452 80.2984,27.4611 80.2643,27.4773 80.2303,27.4939 80.1965,27.5108 80.1629,27.5281 80.1294,27.5457 80.0962,27.5636 80.0631,27.5819 80.0302,27.6004 79.9974,27.6194 79.9649,27.6386 79.9326,27.6582 79.9004,27.6781 79.8685,27.6983 79.8368,27.7188 79.8052,27.7397 79.7739,27.7608 79.7428,27.7823 79.7119,27.8041 79.6813,27.8262 79.6508,27.8486 79.6206,27.8712 79.5906,27.8942 79.5608,27.9175 79.5313,27.9411 79.502,27.965 79.473,27.9892 79.4442,28.0137 79.4156,28.0384 79.3873,28.0635 79.3592,28.0888 79.3314,28.1144 79.3039,28.1403 79.2766,28.1664 79.2496,28.1929 79.2228,28.2195 79.1963,28.2465 79.1701,28.2737 79.1442,28.3012 79.1185,28.329 79.0931,28.357 79.068,28.3852 79.0432,28.4137 79.0187,28.4425 78.9944,28.4714 78.9704,28.5007 78.9468,28.5301 78.9234,28.5598 78.9003,28.5898 78.8776,28.6199 78.8551,28.6503 78.8329,28.681 78.8111,28.7118 78.7895,28.7428 78.7683,28.7741 78.7474,28.8056 78.7268,28.8373 78.7065,28.8692 78.6865,28.9012 78.6669,28.9335 78.6476,28.966 78.6286,28.9987 78.6099,29.0316 78.5916,29.0646 78.5735,29.0978 78.5559,29.1312 78.5385,29.1648 78.5215,29.1986 78.5049,29.2325 78.4885,29.2666 78.4726,29.3008 78.4569,29.3353 78.4416,29.3698 78.4267,29.4045 78.4121,29.4394 78.3978,29.4744 78.3839,29.5095 78.3704,29.5448 78.3572,29.5802 78.3444,29.6158 78.3319,29.6515 78.3197,29.6873 78.308,29.7232 78.2966,29.7592 78.2855,29.7954 78.2748,29.8316 78.2645,29.868 78.2546,29.9044 78.245,29.941 78.2357,29.9776 78.2269,30.0144 78.2184,30.0512 78.2103,30.0881 78.2025,30.1251 78.1951,30.1622 78.1881,30.1993 78.1815,30.2365 78.1752,30.2738 78.1693,30.3111 78.1638,30.3485 78.1587,30.386 78.1539,30.4235 78.1495,30.461 78.1455,30.4986 78.1418,30.5362 78.1386,30.5739 78.1357,30.6115 78.1332,30.6492 78.131,30.687 78.1293,30.7247 78.1279,30.7625 78.1269,30.8003 78.1262,30.8381 78.126,30.8759 78.1261,30.9137 78.1266,30.9515 78.1275,30.9892 78.1288,31.027 78.1304,31.0648 78.1324,31.1025 78.1348,31.1402 78.1376,31.1779 78.1407,31.2156 78.1443,31.2532 78.1482,31.2908 78.1524,31.3284 78.1571,31.3659 78.1621,31.4033 78.1675,31.4407 78.1733,31.4781 78.1795,31.5154 78.186,31.5526 78.1929,31.5898 78.2001,31.6269 78.2078,31.6639 78.2158,31.7008 78.2241,31.7377 78.2329,31.7744 78.242,31.8111 78.2515,31.8477 78.2613,31.8842 78.2715,31.9206 78.2821,31.9569 78.293,31.9931 78.3043,32.0291 78.316,32.0651 78.328,32.1009 78.3403,32.1366 78.3531,32.1722 78.3661,32.2077 78.3796,32.243 78.3934,32.2782 78.4075,32.3133 78.422,32.3482 78.4368,32.3829 78.452,32.4175 78.4675,32.452 78.4834,32.4863 78.4996,32.5204 78.5162,32.5544 78.5331,32.5882 78.5503,32.6219 78.5679,32.6553 78.5858,32.6886 78.604,32.7217 78.6226,32.7546 78.6415,32.7874 78.6607,32.8199 78.6802,32.8523 78.7001,32.8844 78.7203,32.9164 78.7408,32.9481 78.7616,32.9797 78.7827,33.011 78.8042,33.0421 78.8259,33.073 78.848,33.1037 78.8704,33.1342 78.8931,33.1644 78.916,33.1944 78.9393,33.2242 78.9629,33.2537 78.9867,33.2831 79.0109,33.3121 79.0353,33.3409 79.0601,33.3695 79.0851,33.3979 79.1104,33.4259 79.136,33.4538 79.1618,33.4813 79.188,33.5086 79.2144,33.5357 79.241,33.5624 79.268,33.589 79.2952,33.6152 79.3226,33.6412 79.3504,33.6669 79.3783,33.6923 79.4066,33.7174 79.435,33.7422 79.4638,33.7668 79.4927,33.7911 79.522,33.8151 79.5514,33.8387 79.5811,33.8621 79.611,33.8852 79.6412,33.908 79.6715,33.9305 79.7021,33.9527 79.7329,33.9746 79.764,33.9962 79.7952,34.0174 79.8267,34.0384 79.8584,34.059 79.8902,34.0793 79.9223,34.0993 79.9546,34.119 79.987,34.1383 80.0197,34.1573 80.0526,34.176 80.0856,34.1944 80.1188,34.2124 80.1522,34.2301 80.1858,34.2475 80.2195,34.2645 80.2534,34.2812 80.2875,34.2976 80.3217,34.3136 80.3561,34.3292 80.3907,34.3446 80.4254,34.3595 80.4602,34.3742 80.4952,34.3884 80.5304,34.4024 80.5656,34.4159 80.601,34.4292 80.6366,34.442 80.6722,34.4545 80.708,34.4667 80.7439,34.4785 80.78,34.4899 80.8161,34.501 80.8523,34.5117 80.8887,34.5221 80.9251,34.5321 80.9617,34.5417 80.9983,34.5509 81.0351,34.5598 81.0719,34.5683 81.1088,34.5765 81.1458,34.5843 81.1828,34.5917 81.22,34.5987 81.2572,34.6054 81.2945,34.6117 81.3318,34.6176 81.3692,34.6232 81.4066,34.6283 81.4441,34.6331 81.4816,34.6376 81.5192,34.6416 81.5568,34.6453 81.5945,34.6486 81.6322,34.6515 81.6699,34.6541 81.7076,34.6562 81.7453,34.658 81.7831,34.6594 81.8209,34.6605 81.8587,34.6611 81.8965,34.6614 81.9343,34.6613 81.9721,34.6608 82.0099,34.66 82.0476,34.6587 82.0854,34.6571 82.1231,34.6551 82.1609,34.6528 82.1986,34.65 82.2362,34.6469 82.2738,34.6434 82.3114,34.6396 82.349,34.6353 82.3865,34.6307 82.424,34.6257 82.4614,34.6203 82.4987,34.6146 82.536,34.6085 82.5733,34.602 82.6104,34.5951 82.6475,34.5879 82.6846,34.5803 82.7215,34.5723 82.7584,34.5639 82.7951,34.5552 82.8318,34.5461 82.8684,34.5367 82.9049,34.5269 82.9413,34.5167 82.9776,34.5062 83.0138,34.4953 83.0499,34.484 83.0859,34.4724 83.1217,34.4604 83.1574,34.4481 83.193,34.4354 83.2285,34.4223 83.2638,34.4089 83.299,34.3951 83.3341,34.381 83.369,34.3666 83.4038,34.3518 83.4384,34.3366 83.4729,34.3211 83.5072,34.3053 83.5413,34.2891 83.5753,34.2725 83.6092,34.2557 83.6428,34.2385 83.6763,34.2209 83.7096,34.2031 83.7427,34.1849 83.7756,34.1663 83.8084,34.1474 83.841,34.1283 83.8733,34.1087 83.9055,34.0889 83.9375,34.0687 83.9692,34.0483 84.0008,34.0275 84.0321,34.0064 84.0633,33.9849 84.0942,33.9632 84.1249,33.9412 84.1554,33.9188 84.1856,33.8962 84.2157,33.8732 84.2455,33.85 84.275,33.8264 84.3044,33.8026 84.3334,33.7784 84.3623,33.754 84.3909,33.7293 84.4192,33.7043 84.4473,33.679 84.4752,33.6535 84.5028,33.6276 84.5301,33.6015 84.5571,33.5751 84.5839,33.5485 84.6105,33.5216 84.6367,33.4944 84.6627,33.467 84.6884,33.4393 84.7139,33.4113 84.739,33.3831 84.7639,33.3546 84.7885,33.3259 84.8128,33.297 84.8368,33.2678 84.8605,33.2383 84.8839,33.2087 84.907,33.1788 84.9298,33.1487 84.9524,33.1183 84.9746,33.0877 84.9965,33.0569 85.0181,33.0259 85.0394,32.9947 85.0603,32.9632 85.081,32.9316 85.1013,32.8997 85.1213,32.8677 85.141,32.8354 85.1604,32.8029 85.1795,32.7703 85.1982,32.7375 85.2166,32.7044 85.2346,32.6712 85.2524,32.6379 85.2697,32.6043 85.2868,32.5706 85.3035,32.5367 85.3199,32.5026 85.3359,32.4684 85.3516,32.434 85.367,32.3995 85.382,32.3648 85.3966,32.3299 85.4109,32.295 85.4249,32.2598 85.4385,32.2246 85.4518,32.1892 85.4646,32.1537 85.4772,32.118 85.4894,32.0822 85.5012,32.0463 85.5127,32.0103 85.5238,31.9742 85.5345,31.9379 85.5449,31.9016 85.5549,31.8652 85.5645,31.8286 85.5738,31.792 85.5827,31.7553 85.5913,31.7184 85.5995,31.6815 85.6073,31.6446 85.6147,31.6075 85.6218,31.5704 85.6285,31.5332 85.6348,31.4959 85.6408,31.4586 85.6464,31.4212 85.6516,31.3838 85.6564,31.3463 85.6609,31.3088 85.6649,31.2712 85.6686,31.2336 85.672,31.1959 85.6749,31.1582 85.6775,31.1205 85.6797,31.0828 85.6815,31.0451 85.683,31.0073 85.684,30.9695 85.6847,30.9317 85.685,30.8939 " />
<polygon points="44.1102,72.4567 44.11,72.4189 44.1095,72.3811 44.1085,72.3433 44.1072,72.3056 44.1055,72.2678 44.1034,72.2301 44.101,72.1923 44.0981,72.1547 44.0949,72.117 44.0914,72.0794 44.0874,72.0418 44.0831,72.0042 44.0783,71.9667 44.0733,71.9293 44.0678,71.8919 44.062,71.8545 44.0558,71.8173 44.0492,71.78 44.0422,71.7429 44.0349,71.7058 44.0272,71.6688 44.0191,71.6319 44.0107,71.595 44.0019,71.5583 43.9927,71.5216 43.9832,71.485 43.9733,71.4486 43.963,71.4122 43.9524,71.3759 43.9414,71.3398 43.9301,71.3037 43.9184,71.2678 43.9063,71.232 43.8939,71.1963 43.8811,71.1607 43.868,71.1253 43.8545,71.09 43.8406,71.0548 43.8264,71.0198 43.8119,70.9849 43.797,70.9501 43.7818,70.9156 43.7662,70.8811 43.7502,70.8468 43.734,70.8127 43.7174,70.7788 43.7004,70.745 43.6831,70.7114 43.6655,70.6779 43.6476,70.6447 43.6293,70.6116 43.6107,70.5787 43.5917,70.546 43.5724,70.5135 43.5528,70.4812 43.5329,70.4491 43.5127,70.4171 43.4921,70.3854 43.4713,70.3539 43.4501,70.3226 43.4286,70.2915 43.4068,70.2607 43.3847,70.23 43.3623,70.1996 43.3395,70.1694 43.3165,70.1394 43.2932,70.1097 43.2696,70.0802 43.2457,70.0509 43.2215,70.0219 43.197,69.9931 43.1722,69.9645 43.1471,69.9362 43.1218,69.9082 43.0961,69.8804 43.0702,69.8529 43.0441,69.8256 43.0176,69.7986 42.9909,69.7719 42.9639,69.7454 42.9367,69.7192 42.9092,69.6933 42.8814,69.6677 42.8534,69.6423 42.8251,69.6172 42.7966,69.5924 42.7678,69.5679 42.7388,69.5437 42.7096,69.5197 42.6801,69.4961 42.6504,69.4727 42.6204,69.4497 42.5902,69.4269 42.5598,69.4045 42.5292,69.3824 42.4983,69.3605 42.4673,69.339 42.436,69.3178 42.4045,69.2969 42.3728,69.2763 42.3409,69.2561 42.3088,69.2361 42.2765,69.2165 42.244,69.1972 42.2113,69.1782 42.1784,69.1596 42.1454,69.1413 42.1121,69.1233 42.0787,69.1057 42.0451,69.0884 42.0113,69.0714 41.9774,69.0547 41.9433,69.0384 41.909,69.0225 41.8746,69.0069 41.84,68.9916 41.8053,68.9767 41.7704,68.9621 41.7354,68.9479 41.7002,68.934 41.665,68.9205 41.6295,68.9073 41.594,68.8945 41.5583,68.8821 41.5225,68.87 41.4866,68.8582 41.4505,68.8469 41.4144,68.8358 41.3781,68.8252 41.3417,68.8149 41.3053,68.805 41.2687,68.7954 41.232,68.7862 41.1953,68.7774 41.1585,68.7689 41.1215,68.7608 41.0845,68.7531 41.0475,68.7458 41.0103,68.7388 40.9731,68.7322 40.9358,68.7259 40.8985,68.7201 40.8611,68.7146 40.8236,68.7094 40.7862,68.7047 40.7486,68.7003 40.711,68.6963 40.6734,68.6927 40.6357,68.6895 40.5981,68.6866 40.5603,68.6841 40.5226,68.682 40.4849,68.6803 40.4471,68.679 40.4093,68.678 40.3715,68.6774 40.3337,68.6772 40.2959,68.6773 40.2581,68.6779 40.2203,68.6788 40.1826,68.6801 40.1448,68.6817 40.1071,68.6838 40.0694,68.6862 40.0317,68.689 39.994,68.6922 39.9564,68.6957 39.9188,68.6997 39.8812,68.704 39.8437,68.7087 39.8063,68.7137 39.7689,68.7192 39.7315,68.725 39.6942,68.7311 39.657,68.7377 39.6199,68.7446 39.5828,68.7519 39.5458,68.7596 39.5088,68.7676 39.472,68.776 39.4352,68.7848 39.3986,68.7939 39.362,68.8034 39.3255,68.8133 39.2891,68.8235 39.2528,68.8341 39.2167,68.8451 39.1806,68.8564 39.1447,68.8681 39.1088,68.8801 39.0731,68.8925 39.0375,68.9053 39.0021,68.9184 38.9668,68.9318 38.9316,68.9457 38.8966,68.9598 38.8617,68.9743 38.8269,68.9892 38.7923,69.0044 38.7579,69.02 38.7236,69.0359 38.6895,69.0521 38.6555,69.0687 38.6217,69.0856 38.5881,69.1029 38.5546,69.1205 38.5213,69.1384 38.4883,69.1567 38.4553,69.1753 38.4226,69.1942 38.3901,69.2134 38.3578,69.233 38.3256,69.2529 38.2937,69.2731 38.262,69.2936 38.2304,69.3145 38.1991,69.3356 38.168,69.3571 38.1371,69.3789 38.1065,69.401 38.076,69.4234 38.0458,69.4461 38.0158,69.4691 37.986,69.4923 37.9565,69.5159 37.9272,69.5398 37.8982,69.564 37.8694,69.5885 37.8408,69.6132 37.8125,69.6383 37.7844,69.6636 37.7566,69.6892 37.7291,69.7151 37.7018,69.7412 37.6748,69.7677 37.648,69.7944 37.6215,69.8213 37.5953,69.8485 37.5694,69.876 37.5437,69.9038 37.5183,69.9318 37.4932,69.96 37.4684,69.9885 37.4438,70.0173 37.4196,70.0462 37.3956,70.0755 37.372,70.1049 37.3486,70.1346 37.3255,70.1646 37.3028,70.1948 37.2803,70.2251 37.2581,70.2558 37.2363,70.2866 37.2147,70.3176 37.1935,70.3489 37.1726,70.3804 37.152,70.4121 37.1317,70.444 37.1117,70.4761 37.0921,70.5083 37.0728,70.5408 37.0538,70.5735 37.0351,70.6064 37.0168,70.6394 36.9987,70.6726 36.9811,70.706 36.9637,70.7396 36.9467,70.7734 36.9301,70.8073 36.9137,70.8414 36.8978,70.8756 36.8821,70.9101 36.8668,70.9446 36.8519,70.9793 36.8373,71.0142 36.823,71.0492 36.8091,71.0843 36.7956,71.1196 36.7824,71.155 36.7696,71.1906 36.7571,71.2263 36.7449,71.2621 36.7332,71.298 36.7218,71.334 36.7107,71.3702 36.7,71.4064 36.6897,71.4428 36.6798,71.4792 36.6702,71.5158 36.6609,71.5524 36.6521,71.5892 36.6436,71.626 36.6355,71.6629 36.6277,71.6999 36.6203,71.737 36.6133,71.7741 36.6067,71.8113 36.6004,71.8486 36.5945,71.8859 36.589,71.9233 36.5839,71.9608 36.5791,71.9983 36.5747,72.0358 36.5707,72.0734 36.567,72.111 36.5638,72.1487 36.5609,72.1863 36.5583,72.224 36.5562,72.2618 36.5544,72.2995 36.5531,72.3373 36.5521,72.3751 36.5514,72.4129 36.5512,72.4507 36.5513,72.4885 36.5518,72.5263 36.5527,72.564 36.554,72.6018 36.5556,72.6396 36.5576,72.6773 36.56,72.715 36.5628,72.7527 36.5659,72.7904 36.5695,72.828 36.5734,72.8656 36.5776,72.9032 36.5823,72.9407 36.5873,72.9781 36.5927,73.0155 36.5985,73.0529 36.6047,73.0902 36.6112,73.1274 36.6181,73.1646 36.6253,73.2017 36.633,73.2387 36.641,73.2756 36.6493,73.3125 36.6581,73.3492 36.6672,73.3859 36.6767,73.4225 36.6865,73.459 36.6967,73.4954 36.7073,73.5317 36.7182,73.5679 36.7295,73.6039 36.7412,73.6399 36.7532,73.6757 36.7655,73.7114 36.7783,73.747 36.7913,73.7825 36.8048,73.8178 36.8186,73.853 36.8327,73.8881 36.8472,73.923 36.862,73.9577 36.8772,73.9923 36.8927,74.0268 36.9086,74.0611 36.9248,74.0952 36.9414,74.1292 36.9583,74.163 36.9755,74.1967 36.9931,74.2301 37.011,74.2634 37.0292,74.2965 37.0478,74.3294 37.0667,74.3622 37.0859,74.3947 37.1054,74.4271 37.1253,74.4592 37.1455,74.4912 37.166,74.5229 37.1868,74.5545 37.2079,74.5858 37.2294,74.6169 37.2511,74.6478 37.2732,74.6785 37.2956,74.709 37.3182,74.7392 37.3412,74.7692 37.3645,74.799 37.3881,74.8285 37.4119,74.8579 37.4361,74.8869 37.4605,74.9157 37.4853,74.9443 37.5103,74.9727 37.5356,75.0007 37.5612,75.0286 37.587,75.0561 37.6132,75.0834 37.6396,75.1105 37.6662,75.1373 37.6932,75.1638 37.7204,75.19 37.7478,75.216 37.7756,75.2417 37.8035,75.2671 37.8318,75.2922 37.8602,75.317 37.889,75.3416 37.9179,75.3659 37.9472,75.3899 37.9766,75.4136 38.0063,75.4369 38.0362,75.46 38.0664,75.4828 38.0967,75.5053 38.1273,75.5275 38.1581,75.5494 38.1892,75.571 38.2204,75.5922 38.2519,75.6132 38.2836,75.6338 38.3154,75.6541 38.3475,75.6741 38.3798,75.6938 38.4122,75.7131 38.4449,75.7321 38.4778,75.7508 38.5108,75.7692 38.544,75.7872 38.5774,75.8049 38.611,75.8223 38.6447,75.8393 38.6786,75.856 38.7127,75.8724 38.7469,75.8884 38.7813,75.904 38.8159,75.9194 38.8506,75.9343 38.8854,75.949 38.9204,75.9632 38.9556,75.9772 38.9908,75.9907 39.0262,76.004 39.0618,76.0168 39.0974,76.0293 39.1332,76.0415 39.1691,76.0533 39.2052,76.0647 39.2413,76.0758 39.2775,76.0865 39.3139,76.0969 39.3503,76.1069 39.3869,76.1165 39.4235,76.1257 39.4603,76.1346 39.4971,76.1431 39.534,76.1513 39.571,76.1591 39.608,76.1665 39.6452,76.1735 39.6824,76.1802 39.7196,76.1865 39.757,76.1924 39.7944,76.198 39.8318,76.2031 39.8693,76.2079 39.9068,76.2124 39.9444,76.2164 39.982,76.2201 40.0197,76.2234 40.0574,76.2263 40.0951,76.2289 40.1328,76.231 40.1705,76.2328 40.2083,76.2342 40.2461,76.2353 40.2839,76.2359 40.3217,76.2362 40.3595,76.2361 40.3973,76.2356 40.4351,76.2348 40.4728,76.2335 40.5106,76.2319 40.5483,76.23 40.5861,76.2276 40.6237,76.2248 40.6614,76.2217 40.699,76.2182 40.7366,76.2144 40.7742,76.2101 40.8117,76.2055 40.8492,76.2005 40.8866,76.1951 40.9239,76.1894 40.9612,76.1833 40.9985,76.1768 41.0356,76.1699 41.0727,76.1627 41.1098,76.1551 41.1467,76.1471 41.1836,76.1387 41.2203,76.13 41.257,76.1209 41.2936,76.1115 41.3301,76.1017 41.3665,76.0915 41.4028,76.081 41.439,76.0701 41.4751,76.0588 41.511,76.0472 41.5469,76.0352 41.5826,76.0229 41.6182,76.0102 41.6537,75.9971 41.689,75.9837 41.7242,75.9699 41.7593,75.9558 41.7942,75.9414 41.829,75.9266 41.8636,75.9114 41.8981,75.8959 41.9324,75.8801 41.9665,75.8639 42.0005,75.8473 42.0343,75.8305 42.068,75.8133 42.1015,75.7957 42.1348,75.7779 42.1679,75.7597 42.2008,75.7411 42.2336,75.7223 42.2661,75.7031 42.2985,75.6835 42.3307,75.6637 42.3627,75.6435 42.3944,75.6231 42.426,75.6023 42.4573,75.5812 42.4885,75.5597 42.5194,75.538 42.5501,75.516 42.5806,75.4936 42.6108,75.471 42.6409,75.448 42.6707,75.4248 42.7002,75.4012 42.7295,75.3774 42.7586,75.3532 42.7875,75.3288 42.8161,75.3041 42.8444,75.2791 42.8725,75.2538 42.9004,75.2283 42.928,75.2024 42.9553,75.1763 42.9823,75.15 43.0091,75.1233 43.0357,75.0964 43.0619,75.0692 43.0879,75.0418 43.1136,75.0141 43.1391,74.9861 43.1642,74.9579 43.1891,74.9294 43.2137,74.9007 43.238,74.8718 43.262,74.8426 43.2857,74.8132 43.3091,74.7835 43.3322,74.7536 43.355,74.7235 43.3776,74.6931 43.3998,74.6625 43.4217,74.6317 43.4433,74.6007 43.4646,74.5695 43.4855,74.538 43.5062,74.5064 43.5265,74.4745 43.5465,74.4425 43.5662,74.4102 43.5856,74.3777 43.6047,74.3451 43.6234,74.3123 43.6418,74.2793 43.6598,74.246 43.6776,74.2127 43.6949,74.1791 43.712,74.1454 43.7287,74.1115 43.7451,74.0774 43.7611,74.0432 43.7768,74.0088 43.7922,73.9743 43.8072,73.9396 43.8218,73.9048 43.8361,73.8698 43.8501,73.8346 43.8637,73.7994 43.8769,73.764 43.8898,73.7285 43.9024,73.6928 43.9146,73.657 43.9264,73.6211 43.9379,73.5851 43.949,73.549 43.9597,73.5128 43.9701,73.4764 43.9801,73.44 43.9897,73.4034 43.999,73.3668 44.0079,73.3301 44.0165,73.2932 44.0247,73.2563 44.0325,73.2194 44.0399,73.1823 44.047,73.1452 44.0537,73.108 44.06,73.0707 44.066,73.0334 44.0716,72.996 44.0768,72.9586 44.0816,72.9211 44.0861,72.8836 44.0901,72.846 44.0938,72.8084 44.0972,72.7707 44.1001,72.7331 44.1027,72.6953 44.1049,72.6576 44.1067,72.6199 44.1082,72.5821 44.1092,72.5443 44.1099,72.5065 44.1102,72.4687 " />
<polygon points="68.6772,13.874 68.677,13.8362 68.6764,13.7984 68.6755,13.7606 68.6741,13.7229 68.6724,13.6851 68.6704,13.6474 68.6679,13.6097 68.6651,13.572 68.6619,13.5343 68.6583,13.4967 68.6543,13.4591 68.65,13.4216 68.6453,13.3841 68.6402,13.3466 68.6347,13.3092 68.6289,13.2719 68.6227,13.2346 68.6161,13.1974 68.6091,13.1602 68.6018,13.1231 68.5941,13.0861 68.5861,13.0492 68.5776,13.0124 68.5688,12.9756 68.5597,12.9389 68.5501,12.9024 68.5402,12.8659 68.53,12.8295 68.5193,12.7933 68.5084,12.7571 68.497,12.721 68.4853,12.6851 68.4732,12.6493 68.4608,12.6136 68.448,12.578 68.4349,12.5426 68.4214,12.5073 68.4076,12.4721 68.3934,12.4371 68.3788,12.4022 68.3639,12.3675 68.3487,12.3329 68.3331,12.2984 68.3172,12.2642 68.3009,12.2301 68.2843,12.1961 68.2673,12.1623 68.2501,12.1287 68.2324,12.0953 68.2145,12.062 68.1962,12.0289 68.1776,11.996 68.1586,11.9633 68.1394,11.9308 68.1198,11.8985 68.0999,11.8664 68.0796,11.8345 68.0591,11.8027 68.0382,11.7712 68.017,11.7399 67.9955,11.7088 67.9737,11.678 67.9516,11.6473 67.9292,11.6169 67.9065,11.5867 67.8834,11.5567 67.8601,11.527 67.8365,11.4975 67.8126,11.4682 67.7884,11.4392 67.7639,11.4104 67.7391,11.3819 67.714,11.3536 67.6887,11.3255 67.6631,11.2977 67.6372,11.2702 67.611,11.243 67.5846,11.216 67.5578,11.1892 67.5309,11.1627 67.5036,11.1366 67.4761,11.1106 67.4483,11.085 67.4203,11.0596 67.3921,11.0345 67.3635,11.0097 67.3348,10.9852 67.3058,10.961 67.2765,10.9371 67.247,10.9134 67.2173,10.8901 67.1874,10.867 67.1572,10.8443 67.1268,10.8218 67.0961,10.7997 67.0653,10.7779 67.0342,10.7563 67.0029,10.7351 66.9714,10.7142 66.9397,10.6937 66.9078,10.6734 66.8757,10.6534 66.8434,10.6338 66.8109,10.6145 66.7782,10.5956 66.7453,10.5769 66.7123,10.5586 66.679,10.5406 66.6456,10.523 66.612,10.5057 66.5782,10.4887 66.5443,10.4721 66.5102,10.4558 66.4759,10.4398 66.4415,10.4242 66.407,10.4089 66.3722,10.394 66.3374,10.3794 66.3023,10.3652 66.2672,10.3513 66.2319,10.3378 66.1965,10.3247 66.1609,10.3119 66.1252,10.2994 66.0894,10.2873 66.0535,10.2756 66.0174,10.2642 65.9813,10.2532 65.945,10.2425 65.9087,10.2322 65.8722,10.2223 65.8356,10.2127 65.799,10.2035 65.7622,10.1947 65.7254,10.1862 65.6885,10.1781 65.6515,10.1704 65.6144,10.1631 65.5772,10.1561 65.54,10.1495 65.5028,10.1432 65.4654,10.1374 65.428,10.1319 65.3906,10.1268 65.3531,10.122 65.3155,10.1177 65.278,10.1137 65.2403,10.1101 65.2027,10.1068 65.165,10.104 65.1273,10.1015 65.0895,10.0994 65.0518,10.0976 65.014,10.0963 64.9762,10.0953 64.9384,10.0947 64.9006,10.0945 64.8629,10.0946 64.8251,10.0952 64.7873,10.0961 64.7495,10.0974 64.7117,10.0991 64.674,10.1011 64.6363,10.1035 64.5986,10.1063 64.5609,10.1095 64.5233,10.1131 64.4857,10.117 64.4482,10.1213 64.4107,10.126 64.3732,10.131 64.3358,10.1365 64.2985,10.1423 64.2612,10.1485 64.224,10.155 64.1868,10.1619 64.1497,10.1692 64.1127,10.1769 64.0758,10.1849 64.0389,10.1933 64.0022,10.2021 63.9655,10.2112 63.9289,10.2207 63.8924,10.2306 63.856,10.2408 63.8198,10.2514 63.7836,10.2624 63.7475,10.2737 63.7116,10.2854 63.6758,10.2974 63.6401,10.3098 63.6045,10.3226 63.569,10.3357 63.5337,10.3492 63.4985,10.363 63.4635,10.3772 63.4286,10.3917 63.3938,10.4065 63.3592,10.4217 63.3248,10.4373 63.2905,10.4532 63.2564,10.4694 63.2224,10.486 63.1886,10.5029 63.155,10.5202 63.1216,10.5378 63.0883,10.5557 63.0552,10.574 63.0223,10.5926 62.9896,10.6115 62.957,10.6307 62.9247,10.6503 62.8926,10.6702 62.8606,10.6904 62.8289,10.7109 62.7974,10.7318 62.766,10.7529 62.7349,10.7744 62.704,10.7962 62.6734,10.8183 62.6429,10.8407 62.6127,10.8634 62.5827,10.8864 62.553,10.9097 62.5234,10.9333 62.4941,10.9572 62.4651,10.9813 62.4363,11.0058 62.4077,11.0306 62.3794,11.0556 62.3514,11.0809 62.3236,11.1065 62.296,11.1324 62.2687,11.1586 62.2417,11.185 62.215,11.2117 62.1885,11.2386 62.1623,11.2659 62.1363,11.2933 62.1106,11.3211 62.0852,11.3491 62.0601,11.3773 62.0353,11.4058 62.0108,11.4346 61.9865,11.4636 61.9626,11.4928 61.9389,11.5223 61.9155,11.552 61.8925,11.5819 61.8697,11.6121 61.8472,11.6425 61.8251,11.6731 61.8032,11.7039 61.7817,11.735 61.7604,11.7662 61.7395,11.7977 61.7189,11.8294 61.6986,11.8613 61.6786,11.8934 61.659,11.9257 61.6397,11.9581 61.6207,11.9908 61.602,12.0237 61.5837,12.0567 61.5657,12.09 61.548,12.1234 61.5307,12.157 61.5137,12.1907 61.497,12.2246 61.4807,12.2587 61.4647,12.293 61.4491,12.3274 61.4338,12.3619 61.4188,12.3967 61.4042,12.4315 61.39,12.4665 61.3761,12.5017 61.3625,12.537 61.3493,12.5724 61.3365,12.6079 61.324,12.6436 61.3119,12.6794 61.3001,12.7153 61.2887,12.7513 61.2777,12.7875 61.267,12.8237 61.2566,12.8601 61.2467,12.8966 61.2371,12.9331 61.2279,12.9698 61.219,13.0065 61.2105,13.0433 61.2024,13.0802 61.1946,13.1172 61.1873,13.1543 61.1803,13.1914 61.1736,13.2287 61.1673,13.2659 61.1615,13.3033 61.1559,13.3406 61.1508,13.3781 61.146,13.4156 61.1416,13.4531 61.1376,13.4907 61.134,13.5283 61.1307,13.566 61.1278,13.6037 61.1253,13.6414 61.1231,13.6791 61.1214,13.7169 61.12,13.7546 61.119,13.7924 61.1184,13.8302 61.1181,13.868 61.1182,13.9058 61.1188,13.9436 61.1196,13.9814 61.1209,14.0191 61.1225,14.0569 61.1246,14.0946 61.127,14.1324 61.1297,14.1701 61.1329,14.2077 61.1364,14.2453 61.1403,14.2829 61.1446,14.3205 61.1492,14.358 61.1543,14.3955 61.1597,14.4329 61.1654,14.4702 61.1716,14.5075 61.1781,14.5447 61.185,14.5819 61.1923,14.619 61.1999,14.656 61.2079,14.6929 61.2163,14.7298 61.225,14.7666 61.2341,14.8033 61.2436,14.8398 61.2534,14.8763 61.2636,14.9127 61.2742,14.949 61.2851,14.9852 61.2964,15.0213 61.3081,15.0572 61.3201,15.093 61.3325,15.1288 61.3452,15.1644 61.3583,15.1998 61.3717,15.2351 61.3855,15.2703 61.3996,15.3054 61.4141,15.3403 61.429,15.375 61.4441,15.4097 61.4597,15.4441 61.4755,15.4784 61.4918,15.5126 61.5083,15.5465 61.5252,15.5803 61.5424,15.614 61.56,15.6474 61.5779,15.6807 61.5961,15.7138 61.6147,15.7468 61.6336,15.7795 61.6528,15.812 61.6724,15.8444 61.6922,15.8765 61.7124,15.9085 61.7329,15.9402 61.7537,15.9718 61.7749,16.0031 61.7963,16.0342 61.8181,16.0652 61.8401,16.0958 61.8625,16.1263 61.8852,16.1565 61.9082,16.1865 61.9314,16.2163 61.955,16.2459 61.9789,16.2752 62.003,16.3042 62.0275,16.3331 62.0522,16.3616 62.0772,16.39 62.1025,16.4181 62.1281,16.4459 62.154,16.4734 62.1801,16.5008 62.2065,16.5278 62.2332,16.5546 62.2601,16.5811 62.2873,16.6073 62.3148,16.6333 62.3425,16.659 62.3705,16.6844 62.3987,16.7095 62.4272,16.7344 62.4559,16.7589 62.4849,16.7832 62.5141,16.8072 62.5435,16.8309 62.5732,16.8543 62.6031,16.8774 62.6333,16.9002 62.6637,16.9226 62.6943,16.9448 62.7251,16.9667 62.7561,16.9883 62.7874,17.0095 62.8188,17.0305 62.8505,17.0511 62.8824,17.0714 62.9144,17.0914 62.9467,17.1111 62.9792,17.1304 63.0118,17.1495 63.0447,17.1682 63.0777,17.1865 63.1109,17.2046 63.1443,17.2223 63.1779,17.2396 63.2116,17.2567 63.2455,17.2733 63.2796,17.2897 63.3139,17.3057 63.3483,17.3214 63.3828,17.3367 63.4175,17.3517 63.4524,17.3663 63.4874,17.3806 63.5225,17.3945 63.5578,17.4081 63.5932,17.4213 63.6287,17.4342 63.6644,17.4467 63.7002,17.4588 63.7361,17.4706 63.7721,17.4821 63.8082,17.4931 63.8445,17.5038 63.8808,17.5142 63.9173,17.5242 63.9538,17.5338 63.9905,17.5431 64.0272,17.5519 64.064,17.5605 64.1009,17.5686 64.1379,17.5764 64.175,17.5838 64.2121,17.5909 64.2493,17.5975 64.2866,17.6038 64.3239,17.6097 64.3613,17.6153 64.3987,17.6205 64.4362,17.6253 64.4738,17.6297 64.5113,17.6337 64.5489,17.6374 64.5866,17.6407 64.6243,17.6436 64.662,17.6462 64.6997,17.6484 64.7375,17.6501 64.7752,17.6516 64.813,17.6526 64.8508,17.6533 64.8886,17.6535 64.9264,17.6534 64.9642,17.653 65.002,17.6521 65.0398,17.6509 65.0775,17.6493 65.1153,17.6473 65.153,17.6449 65.1907,17.6422 65.2283,17.639 65.266,17.6356 65.3036,17.6317 65.3411,17.6274 65.3786,17.6228 65.4161,17.6178 65.4535,17.6124 65.4909,17.6067 65.5282,17.6006 65.5654,17.5941 65.6026,17.5872 65.6397,17.58 65.6767,17.5724 65.7136,17.5644 65.7505,17.5561 65.7873,17.5474 65.824,17.5383 65.8606,17.5288 65.8971,17.519 65.9335,17.5088 65.9697,17.4983 66.0059,17.4874 66.042,17.4761 66.078,17.4645 66.1138,17.4525 66.1495,17.4402 66.1851,17.4275 66.2206,17.4144 66.256,17.401 66.2912,17.3873 66.3262,17.3732 66.3611,17.3587 66.3959,17.3439 66.4305,17.3287 66.465,17.3132 66.4993,17.2974 66.5335,17.2812 66.5675,17.2647 66.6013,17.2478 66.6349,17.2306 66.6684,17.2131 66.7017,17.1952 66.7348,17.177 66.7678,17.1584 66.8005,17.1396 66.8331,17.1204 66.8654,17.1009 66.8976,17.081 66.9296,17.0609 66.9614,17.0404 66.9929,17.0196 67.0243,16.9985 67.0554,16.9771 67.0863,16.9553 67.117,16.9333 67.1475,16.9109 67.1778,16.8883 67.2078,16.8653 67.2376,16.8421 67.2672,16.8185 67.2965,16.7947 67.3256,16.7706 67.3544,16.7461 67.383,16.7214 67.4114,16.6964 67.4395,16.6712 67.4673,16.6456 67.4949,16.6198 67.5222,16.5937 67.5493,16.5673 67.5761,16.5406 67.6026,16.5137 67.6289,16.4865 67.6549,16.4591 67.6806,16.4314 67.706,16.4034 67.7312,16.3752 67.756,16.3468 67.7806,16.318 67.8049,16.2891 67.8289,16.2599 67.8526,16.2305 67.876,16.2008 67.8992,16.1709 67.922,16.1408 67.9445,16.1104 67.9667,16.0798 67.9886,16.049 68.0102,16.018 68.0315,15.9868 68.0525,15.9553 68.0731,15.9237 68.0935,15.8918 68.1135,15.8598 68.1332,15.8275 68.1525,15.7951 68.1716,15.7624 68.1903,15.7296 68.2087,15.6966 68.2268,15.6634 68.2445,15.63 68.2619,15.5964 68.2789,15.5627 68.2956,15.5288 68.312,15.4947 68.3281,15.4605 68.3438,15.4261 68.3591,15.3916 68.3741,15.3569 68.3888,15.3221 68.4031,15.2871 68.417,15.252 68.4306,15.2167 68.4439,15.1813 68.4568,15.1458 68.4693,15.1101 68.4815,15.0744 68.4933,15.0385 68.5048,15.0024 68.5159,14.9663 68.5266,14.9301 68.537,14.8937 68.547,14.8573 68.5567,14.8207 68.566,14.7841 68.5749,14.7474 68.5834,14.7106 68.5916,14.6737 68.5994,14.6367 68.6069,14.5996 68.6139,14.5625 68.6206,14.5253 68.627,14.488 68.6329,14.4507 68.6385,14.4133 68.6437,14.3759 68.6485,14.3384 68.653,14.3009 68.6571,14.2633 68.6608,14.2257 68.6641,14.1881 68.667,14.1504 68.6696,14.1127 68.6718,14.0749 68.6736,14.0372 68.6751,13.9994 68.6761,13.9616 68.6768,13.9238 68.6771,13.8861 " />
<polygon points="44.1102,30.8819 44.11,30.8441 44.1095,30.8063 44.1085,30.7685 44.1072,30.7307 44.1055,30.693 44.1034,30.6553 44.101,30.6175 44.0981,30.5798 44.0949,30.5422 44.0914,30.5046 44.0874,30.467 44.0831,30.4294 44.0783,30.3919 44.0733,30.3545 44.0678,30.3171 44.062,30.2797 44.0558,30.2425 44.0492,30.2052 44.0422,30.1681 44.0349,30.131 44.0272,30.094 44.0191,30.0571 44.0107,30.0202 44.0019,29.9835 43.9927,29.9468 43.9832,29.9102 43.9733,29.8738 43.963,29.8374 43.9524,29.8011 43.9414,29.765 43.9301,29.7289 43.9184,29.693 43.9063,29.6572 43.8939,29.6215 43.8811,29.5859 43.868,29.5505 43.8545,29.5152 43.8406,29.48 43.8264,29.445 43.8119,29.4101 43.797,29.3753 43.7818,29.3407 43.7662,29.3063 43.7502,29.272 43.734,29.2379 43.7174,29.204 43.7004,29.1702 43.6831,29.1366 43.6655,29.1031 43.6476,29.0699 43.6293,29.0368 43.6107,29.0039 43.5917,28.9712 43.5724,28.9387 43.5528,28.9064 43.5329,28.8743 43.5127,28.8423 43.4921,28.8106 43.4713,28.7791 43.4501,28.7478 43.4286,28.7167 43.4068,28.6859 43.3847,28.6552 43.3623,28.6248 43.3395,28.5946 43.3165,28.5646 43.2932,28.5349 43.2696,28.5053 43.2457,28.4761 43.2215,28.4471 43.197,28.4183 43.1722,28.3897 43.1471,28.3614 43.1218,28.3334 43.0961,28.3056 43.0702,28.2781 43.0441,28.2508 43.0176,28.2238 42.9909,28.1971 42.9639,28.1706 42.9367,28.1444 42.9092,28.1185 42.8814,28.0929 42.8534,28.0675 42.8251,28.0424 42.7966,28.0176 42.7678,27.9931 42.7388,27.9689 42.7096,27.9449 42.6801,27.9213 42.6504,27.8979 42.6204,27.8749 42.5902,27.8521 42.5598,27.8297 42.5292,27.8076 42.4983,27.7857 42.4673,27.7642 42.436,27.743 42.4045,27.7221 42.3728,27.7015 42.3409,27.6813 42.3088,27.6613 42.2765,27.6417 42.244,27.6224 42.2113,27.6034 42.1784,27.5848 42.1454,27.5665 42.1121,27.5485 42.0787,27.5309 42.0451,27.5135 42.0113,27.4966 41.9774,27.4799 41.9433,27.4636 41.909,27.4477 41.8746,27.4321 41.84,27.4168 41.8053,27.4019 41.7704,27.3873 41.7354,27.3731 41.7002,27.3592 41.665,27.3457 41.6295,27.3325 41.594,27.3197 41.5583,27.3073 41.5225,27.2952 41.4866,27.2834 41.4505,27.2721 41.4144,27.261 41.3781,27.2504 41.3417,27.2401 41.3053,27.2302 41.2687,27.2206 41.232,27.2114 41.1953,27.2026 41.1585,27.1941 41.1215,27.186 41.0845,27.1783 41.0475,27.1709 41.0103,27.164 40.9731,27.1574 40.9358,27.1511 40.8985,27.1453 40.8611,27.1398 40.8236,27.1346 40.7862,27.1299 40.7486,27.1255 40.711,27.1215 40.6734,27.1179 40.6357,27.1147 40.5981,27.1118 40.5603,27.1093 40.5226,27.1072 40.4849,27.1055 40.4471,27.1042 40.4093,27.1032 40.3715,27.1026 40.3337,27.1024 40.2959,27.1025 40.2581,27.1031 40.2203,27.104 40.1826,27.1053 40.1448,27.1069 40.1071,27.109 40.0694,27.1114 40.0317,27.1142 39.994,27.1174 39.9564,27.1209 39.9188,27.1249 39.8812,27.1292 39.8437,27.1339 39.8063,27.1389 39.7689,27.1444 39.7315,27.1502 39.6942,27.1563 39.657,27.1629 39.6199,27.1698 39.5828,27.1771 39.5458,27.1848 39.5088,27.1928 39.472,27.2012 39.4352,27.21 39.3986,27.2191 39.362,27.2286 39.3255,27.2385 39.2891,27.2487 39.2528,27.2593 39.2167,27.2703 39.1806,27.2816 39.1447,27.2933 39.1088,27.3053 39.0731,27.3177 39.0375,27.3305 39.0021,27.3436 38.9668,27.357 38.9316,27.3709 38.8966,27.385 38.8617,27.3995 38.8269,27.4144 38.7923,27.4296 38.7579,27.4452 38.7236,27.4611 38.6895,27.4773 38.6555,27.4939 38.6217,27.5108 38.5881,27.5281 38.5546,27.5457 38.5213,27.5636 38.4883,27.5819 38.4553,27.6004 38.4226,27.6194 38.3901,27.6386 38.3578,27.6582 38.3256,27.6781 38.2937,27.6983 38.262,27.7188 38.2304,27.7397 38.1991,27.7608 38.168,27.7823 38.1371,27.8041 38.1065,27.8262 38.076,27.8486 38.0458,27.8712 38.0158,27.8942 37.986,27.9175 37.9565,27.9411 37.9272,27.965 37.8982,27.9892 37.8694,28.0137 37.8408,28.0384 37.8125,28.0635 37.7844,28.0888 37.7566,28.1144 37.7291,28.1403 37.7018,28.1664 37.6748,28.1929 37.648,28.2195 37.6215,28.2465 37.5953,28.2737 37.5694,28.3012 37.5437,28.329 37.5183,28.357 37.4932,28.3852 37.4684,28.4137 37.4438,28.4425 37.4196,28.4714 37.3956,28.5007 37.372,28.5301 37.3486,28.5598 37.3255,28.5898 37.3028,28.6199 37.2803,28.6503 37.2581,28.681 37.2363,28.7118 37.2147,28.7428 37.1935,28.7741 37.1726,28.8056 37.152,28.8373 37.1317,28.8692 37.1117,28.9012 37.0921,28.9335 37.0728,28.966 37.0538,28.9987 37.0351,29.0316 37.0168,29.0646 36.9987,29.0978 36.9811,29.1312 36.9637,29.1648 36.9467,29.1986 36.9301,29.2325 36.9137,29.2666 36.8978,29.3008 36.8821,29.3353 36.8668,29.3698 36.8519,29.4045 36.8373,29.4394 36.823,29.4744 36.8091,29.5095 36.7956,29.5448 36.7824,29.5802 36.7696,29.6158 36.7571,29.6515 36.7449,29.6873 36.7332,29.7232 36.7218,29.7592 36.7107,29.7954 36.7,29.8316 36.6897,29.868 36.6798,29.9044 36.6702,29.941 36.6609,29.9776 36.6521,30.0144 36.6436,30.0512 36.6355,30.0881 36.6277,30.1251 36.6203,30.1622 36.6133,30.1993 36.6067,30.2365 36.6004,30.2738 36.5945,30.3111 36.589,30.3485 36.5839,30.386 36.5791,30.4235 36.5747,30.461 36.5707,30.4986 36.567,30.5362 36.5638,30.5739 36.5609,30.6115 36.5583,30.6492 36.5562,30.687 36.5544,30.7247 36.5531,30.7625 36.5521,30.8003 36.5514,30.8381 36.5512,30.8759 36.5513,30.9137 36.5518,30.9515 36.5527,30.9892 36.554,31.027 36.5556,31.0648 36.5576,31.1025 36.56,31.1402 36.5628,31.1779 36.5659,31.2156 36.5695,31.2532 36.5734,31.2908 36.5776,31.3284 36.5823,31.3659 36.5873,31.4033 36.5927,31.4407 36.5985,31.4781 36.6047,31.5154 36.6112,31.5526 36.6181,31.5898 36.6253,31.6269 36.633,31.6639 36.641,31.7008 36.6493,31.7377 36.6581,31.7744 36.6672,31.8111 36.6767,31.8477 36.6865,31.8842 36.6967,31.9206 36.7073,31.9569 36.7182,31.9931 36.7295,32.0291 36.7412,32.0651 36.7532,32.1009 36.7655,32.1366 36.7783,32.1722 36.7913,32.2077 36.8048,32.243 36.8186,32.2782 36.8327,32.3133 36.8472,32.3482 36.862,32.3829 36.8772,32.4175 36.8927,32.452 36.9086,32.4863 36.9248,32.5204 36.9414,32.5544 36.9583,32.5882 36.9755,32.6219 36.9931,32.6553 37.011,32.6886 37.0292,32.7217 37.0478,32.7546 37.0667,32.7874 37.0859,32.8199 37.1054,32.8523 37.1253,32.8844 37.1455,32.9164 37.166,32.9481 37.1868,32.9797 37.2079,33.011 37.2294,33.0421 37.2511,33.073 37.2732,33.1037 37.2956,33.1342 37.3182,33.1644 37.3412,33.1944 37.3645,33.2242 37.3881,33.2537 37.4119,33.2831 37.4361,33.3121 37.4605,33.3409 37.4853,33.3695 37.5103,33.3979 37.5356,33.4259 37.5612,33.4538 37.587,33.4813 37.6132,33.5086 37.6396,33.5357 37.6662,33.5624 37.6932,33.589 37.7204,33.6152 37.7478,33.6412 37.7756,33.6669 37.8035,33.6923 37.8318,33.7174 37.8602,33.7422 37.889,33.7668 37.9179,33.7911 37.9472,33.8151 37.9766,33.8387 38.0063,33.8621 38.0362,33.8852 38.0664,33.908 38.0967,33.9305 38.1273,33.9527 38.1581,33.9746 38.1892,33.9962 38.2204,34.0174 38.2519,34.0384 38.2836,34.059 38.3154,34.0793 38.3475,34.0993 38.3798,34.119 38.4122,34.1383 38.4449,34.1573 38.4778,34.176 38.5108,34.1944 38.544,34.2124 38.5774,34.2301 38.611,34.2475 38.6447,34.2645 38.6786,34.2812 38.7127,34.2976 38.7469,34.3136 38.7813,34.3292 38.8159,34.3446 38.8506,34.3595 38.8854,34.3742 38.9204,34.3884 38.9556,34.4024 38.9908,34.4159 39.0262,34.4292 39.0618,34.442 39.0974,34.4545 39.1332,34.4667 39.1691,34.4785 39.2052,34.4899 39.2413,34.501 39.2775,34.5117 39.3139,34.5221 39.3503,34.5321 39.3869,34.5417 39.4235,34.5509 39.4603,34.5598 39.4971,34.5683 39.534,34.5765 39.571,34.5843 39.608,34.5917 39.6452,34.5987 39.6824,34.6054 39.7196,34.6117 39.757,34.6176 39.7944,34.6232 39.8318,34.6283 39.8693,34.6331 39.9068,34.6376 39.9444,34.6416 39.982,34.6453 40.0197,34.6486 40.0574,34.6515 40.0951,34.6541 40.1328,34.6562 40.1705,34.658 40.2083,34.6594 40.2461,34.6605 40.2839,34.6611 40.3217,34.6614 40.3595,34.6613 40.3973,34.6608 40.4351,34.66 40.4728,34.6587 40.5106,34.6571 40.5483,34.6551 40.5861,34.6528 40.6237,34.65 40.6614,34.6469 40.699,34.6434 40.7366,34.6396 40.7742,34.6353 40.8117,34.6307 40.8492,34.6257 40.8866,34.6203 40.9239,34.6146 40.9612,34.6085 40.9985,34.602 41.0356,34.5951 41.0727,34.5879 41.1098,34.5803 41.1467,34.5723 41.1836,34.5639 41.2203,34.5552 41.257,34.5461 41.2936,34.5367 41.3301,34.5269 41.3665,34.5167 41.4028,34.5062 41.439,34.4953 41.4751,34.484 41.511,34.4724 41.5469,34.4604 41.5826,34.4481 41.6182,34.4354 41.6537,34.4223 41.689,34.4089 41.7242,34.3951 41.7593,34.381 41.7942,34.3666 41.829,34.3518 41.8636,34.3366 41.8981,34.3211 41.9324,34.3053 41.9665,34.2891 42.0005,34.2725 42.0343,34.2557 42.068,34.2385 42.1015,34.2209 42.1348,34.2031 42.1679,34.1849 42.2008,34.1663 42.2336,34.1474 42.2661,34.1283 42.2985,34.1087 42.3307,34.0889 42.3627,34.0687 42.3944,34.0483 42.426,34.0275 42.4573,34.0064 42.4885,33.9849 42.5194,33.9632 42.5501,33.9412 42.5806,33.9188 42.6108,33.8962 42.6409,33.8732 42.6707,33.85 42.7002,33.8264 42.7295,33.8026 42.7586,33.7784 42.7875,33.754 42.8161,33.7293 42.8444,33.7043 42.8725,33.679 42.9004,33.6535 42.928,33.6276 42.9553,33.6015 42.9823,33.5751 43.0091,33.5485 43.0357,33.5216 43.0619,33.4944 43.0879,33.467 43.1136,33.4393 43.1391,33.4113 43.1642,33.3831 43.1891,33.3546 43.2137,33.3259 43.238,33.297 43.262,33.2678 43.2857,33.2383 43.3091,33.2087 43.3322,33.1788 43.355,33.1487 43.3776,33.1183 43.3998,33.0877 43.4217,33.0569 43.4433,33.0259 43.4646,32.9947 43.4855,32.9632 43.5062,32.9316 43.5265,32.8997 43.5465,32.8677 43.5662,32.8354 43.5856,32.8029 43.6047,32.7703 43.6234,32.7375 43.6418,32.7044 43.6598,32.6712 43.6776,32.6379 43.6949,32.6043 43.712,32.5706 43.7287,32.5367 43.7451,32.5026 43.7611,32.4684 43.7768,32.434 43.7922,32.3995 43.8072,32.3648 43.8218,32.3299 43.8361,32.295 43.8501,32.2598 43.8637,32.2246 43.8769,32.1892 43.8898,32.1537 43.9024,32.118 43.9146,32.0822 43.9264,32.0463 43.9379,32.0103 43.949,31.9742 43.9597,31.9379 43.9701,31.9016 43.9801,31.8652 43.9897,31.8286 43.999,31.792 44.0079,31.7553 44.0165,31.7184 44.0247,31.6815 44.0325,31.6446 44.0399,31.6075 44.047,31.5704 44.0537,31.5332 44.06,31.4959 44.066,31.4586 44.0716,31.4212 44.0768,31.3838 44.0816,31.3463 44.0861,31.3088 44.0901,31.2712 44.0938,31.2336 44.0972,31.1959 44.1001,31.1582 44.1027,31.1205 44.1049,31.0828 44.1067,31.0451 44.1082,31.0073 44.1092,30.9695 44.1099,30.9317 44.1102,30.8939 " />
<polygon points="27.1024,13.874 27.1022,13.8362 27.1016,13.7984 27.1007,13.7606 27.0993,13.7229 27.0976,13.6851 27.0956,13.6474 27.0931,13.6097 27.0903,13.572 27.0871,13.5343 27.0835,13.4967 27.0795,13.4591 27.0752,13.4216 27.0705,13.3841 27.0654,13.3466 27.0599,13.3092 27.0541,13.2719 27.0479,13.2346 27.0413,13.1974 27.0343,13.1602 27.027,13.1231 27.0193,13.0861 27.0113,13.0492 27.0028,13.0124 26.994,12.9756 26.9849,12.9389 26.9753,12.9024 26.9654,12.8659 26.9552,12.8295 26.9445,12.7933 26.9336,12.7571 26.9222,12.721 26.9105,12.6851 26.8984,12.6493 26.886,12.6136 26.8732,12.578 26.8601,12.5426 26.8466,12.5073 26.8327,12.4721 26.8186,12.4371 26.804,12.4022 26.7891,12.3675 26.7739,12.3329 26.7583,12.2984 26.7424,12.2642 26.7261,12.2301 26.7095,12.1961 26.6925,12.1623 26.6753,12.1287 26.6576,12.0953 26.6397,12.062 26.6214,12.0289 26.6028,11.996 26.5838,11.9633 26.5646,11.9308 26.545,11.8985 26.5251,11.8664 26.5048,11.8345 26.4843,11.8027 26.4634,11.7712 26.4422,11.7399 26.4207,11.7088 26.3989,11.678 26.3768,11.6473 26.3544,11.6169 26.3317,11.5867 26.3086,11.5567 26.2853,11.527 26.2617,11.4975 26.2378,11.4682 26.2136,11.4392 26.1891,11.4104 26.1643,11.3819 26.1392,11.3536 26.1139,11.3255 26.0883,11.2977 26.0624,11.2702 26.0362,11.243 26.0098,11.216 25.983,11.1892 25.9561,11.1627 25.9288,11.1366 25.9013,11.1106 25.8735,11.085 25.8455,11.0596 25.8173,11.0345 25.7887,11.0097 25.76,10.9852 25.731,10.961 25.7017,10.9371 25.6722,10.9134 25.6425,10.8901 25.6125,10.867 25.5824,10.8443 25.552,10.8218 25.5213,10.7997 25.4905,10.7779 25.4594,10.7563 25.4281,10.7351 25.3966,10.7142 25.3649,10.6937 25.333,10.6734 25.3009,10.6534 25.2686,10.6338 25.2361,10.6145 25.2034,10.5956 25.1705,10.5769 25.1375,10.5586 25.1042,10.5406 25.0708,10.523 25.0372,10.5057 25.0034,10.4887 24.9695,10.4721 24.9354,10.4558 24.9011,10.4398 24.8667,10.4242 24.8321,10.4089 24.7974,10.394 24.7626,10.3794 24.7275,10.3652 24.6924,10.3513 24.6571,10.3378 24.6217,10.3247 24.5861,10.3119 24.5504,10.2994 24.5146,10.2873 24.4787,10.2756 24.4426,10.2642 24.4065,10.2532 24.3702,10.2425 24.3339,10.2322 24.2974,10.2223 24.2608,10.2127 24.2242,10.2035 24.1874,10.1947 24.1506,10.1862 24.1137,10.1781 24.0767,10.1704 24.0396,10.1631 24.0024,10.1561 23.9652,10.1495 23.928,10.1432 23.8906,10.1374 23.8532,10.1319 23.8158,10.1268 23.7783,10.122 23.7407,10.1177 23.7032,10.1137 23.6655,10.1101 23.6279,10.1068 23.5902,10.104 23.5525,10.1015 23.5147,10.0994 23.477,10.0976 23.4392,10.0963 23.4014,10.0953 23.3636,10.0947 23.3258,10.0945 23.288,10.0946 23.2503,10.0952 23.2125,10.0961 23.1747,10.0974 23.1369,10.0991 23.0992,10.1011 23.0615,10.1035 23.0238,10.1063 22.9861,10.1095 22.9485,10.1131 22.9109,10.117 22.8734,10.1213 22.8359,10.126 22.7984,10.131 22.761,10.1365 22.7237,10.1423 22.6864,10.1485 22.6491,10.155 22.612,10.1619 22.5749,10.1692 22.5379,10.1769 22.501,10.1849 22.4641,10.1933 22.4274,10.2021 22.3907,10.2112 22.3541,10.2207 22.3176,10.2306 22.2812,10.2408 22.245,10.2514 22.2088,10.2624 22.1727,10.2737 22.1368,10.2854 22.101,10.2974 22.0652,10.3098 22.0297,10.3226 21.9942,10.3357 21.9589,10.3492 21.9237,10.363 21.8887,10.3772 21.8538,10.3917 21.819,10.4065 21.7844,10.4217 21.75,10.4373 21.7157,10.4532 21.6816,10.4694 21.6476,10.486 21.6138,10.5029 21.5802,10.5202 21.5467,10.5378 21.5135,10.5557 21.4804,10.574 21.4475,10.5926 21.4148,10.6115 21.3822,10.6307 21.3499,10.6503 21.3178,10.6702 21.2858,10.6904 21.2541,10.7109 21.2226,10.7318 21.1912,10.7529 21.1601,10.7744 21.1292,10.7962 21.0986,10.8183 21.0681,10.8407 21.0379,10.8634 21.0079,10.8864 20.9782,10.9097 20.9486,10.9333 20.9193,10.9572 20.8903,10.9813 20.8615,11.0058 20.8329,11.0306 20.8046,11.0556 20.7766,11.0809 20.7488,11.1065 20.7212,11.1324 20.6939,11.1586 20.6669,11.185 20.6402,11.2117 20.6137,11.2386 20.5874,11.2659 20.5615,11.2933 20.5358,11.3211 20.5104,11.3491 20.4853,11.3773 20.4605,11.4058 20.436,11.4346 20.4117,11.4636 20.3878,11.4928 20.3641,11.5223 20.3407,11.552 20.3177,11.5819 20.2949,11.6121 20.2724,11.6425 20.2503,11.6731 20.2284,11.7039 20.2069,11.735 20.1856,11.7662 20.1647,11.7977 20.1441,11.8294 20.1238,11.8613 20.1038,11.8934 20.0842,11.9257 20.0649,11.9581 20.0459,11.9908 20.0272,12.0237 20.0089,12.0567 19.9909,12.09 19.9732,12.1234 19.9559,12.157 19.9389,12.1907 19.9222,12.2246 19.9059,12.2587 19.8899,12.293 19.8742,12.3274 19.859,12.3619 19.844,12.3967 19.8294,12.4315 19.8152,12.4665 19.8013,12.5017 19.7877,12.537 19.7745,12.5724 19.7617,12.6079 19.7492,12.6436 19.7371,12.6794 19.7253,12.7153 19.7139,12.7513 19.7029,12.7875 19.6922,12.8237 19.6818,12.8601 19.6719,12.8966 19.6623,12.9331 19.6531,12.9698 19.6442,13.0065 19.6357,13.0433 19.6276,13.0802 19.6198,13.1172 19.6125,13.1543 19.6055,13.1914 19.5988,13.2287 19.5925,13.2659 19.5867,13.3033 19.5811,13.3406 19.576,13.3781 19.5712,13.4156 19.5668,13.4531 19.5628,13.4907 19.5591,13.5283 19.5559,13.566 19.553,13.6037 19.5505,13.6414 19.5483,13.6791 19.5466,13.7169 19.5452,13.7546 19.5442,13.7924 19.5436,13.8302 19.5433,13.868 19.5434,13.9058 19.5439,13.9436 19.5448,13.9814 19.5461,14.0191 19.5477,14.0569 19.5498,14.0946 19.5521,14.1324 19.5549,14.1701 19.5581,14.2077 19.5616,14.2453 19.5655,14.2829 19.5698,14.3205 19.5744,14.358 19.5795,14.3955 19.5849,14.4329 19.5906,14.4702 19.5968,14.5075 19.6033,14.5447 19.6102,14.5819 19.6175,14.619 19.6251,14.656 19.6331,14.6929 19.6415,14.7298 19.6502,14.7666 19.6593,14.8033 19.6688,14.8398 19.6786,14.8763 19.6888,14.9127 19.6994,14.949 19.7103,14.9852 19.7216,15.0213 19.7333,15.0572 19.7453,15.093 19.7577,15.1288 19.7704,15.1644 19.7835,15.1998 19.7969,15.2351 19.8107,15.2703 19.8248,15.3054 19.8393,15.3403 19.8542,15.375 19.8693,15.4097 19.8849,15.4441 19.9007,15.4784 19.917,15.5126 19.9335,15.5465 19.9504,15.5803 19.9676,15.614 19.9852,15.6474 20.0031,15.6807 20.0213,15.7138 20.0399,15.7468 20.0588,15.7795 20.078,15.812 20.0976,15.8444 20.1174,15.8765 20.1376,15.9085 20.1581,15.9402 20.1789,15.9718 20.2001,16.0031 20.2215,16.0342 20.2433,16.0652 20.2653,16.0958 20.2877,16.1263 20.3104,16.1565 20.3334,16.1865 20.3566,16.2163 20.3802,16.2459 20.4041,16.2752 20.4282,16.3042 20.4527,16.3331 20.4774,16.3616 20.5024,16.39 20.5277,16.4181 20.5533,16.4459 20.5792,16.4734 20.6053,16.5008 20.6317,16.5278 20.6584,16.5546 20.6853,16.5811 20.7125,16.6073 20.74,16.6333 20.7677,16.659 20.7957,16.6844 20.8239,16.7095 20.8524,16.7344 20.8811,16.7589 20.9101,16.7832 20.9393,16.8072 20.9687,16.8309 20.9984,16.8543 21.0283,16.8774 21.0585,16.9002 21.0889,16.9226 21.1195,16.9448 21.1503,16.9667 21.1813,16.9883 21.2126,17.0095 21.244,17.0305 21.2757,17.0511 21.3076,17.0714 21.3396,17.0914 21.3719,17.1111 21.4044,17.1304 21.437,17.1495 21.4699,17.1682 21.5029,17.1865 21.5361,17.2046 21.5695,17.2223 21.6031,17.2396 21.6368,17.2567 21.6707,17.2733 21.7048,17.2897 21.7391,17.3057 21.7735,17.3214 21.808,17.3367 21.8427,17.3517 21.8776,17.3663 21.9125,17.3806 21.9477,17.3945 21.983,17.4081 22.0184,17.4213 22.0539,17.4342 22.0896,17.4467 22.1254,17.4588 22.1613,17.4706 22.1973,17.4821 22.2334,17.4931 22.2697,17.5038 22.306,17.5142 22.3425,17.5242 22.379,17.5338 22.4157,17.5431 22.4524,17.5519 22.4892,17.5605 22.5261,17.5686 22.5631,17.5764 22.6002,17.5838 22.6373,17.5909 22.6745,17.5975 22.7118,17.6038 22.7491,17.6097 22.7865,17.6153 22.8239,17.6205 22.8614,17.6253 22.899,17.6297 22.9365,17.6337 22.9741,17.6374 23.0118,17.6407 23.0495,17.6436 23.0872,17.6462 23.1249,17.6484 23.1627,17.6501 23.2004,17.6516 23.2382,17.6526 23.276,17.6533 23.3138,17.6535 23.3516,17.6534 23.3894,17.653 23.4272,17.6521 23.465,17.6509 23.5027,17.6493 23.5405,17.6473 23.5782,17.6449 23.6159,17.6422 23.6535,17.639 23.6912,17.6356 23.7288,17.6317 23.7663,17.6274 23.8038,17.6228 23.8413,17.6178 23.8787,17.6124 23.9161,17.6067 23.9534,17.6006 23.9906,17.5941 24.0278,17.5872 24.0649,17.58 24.1019,17.5724 24.1388,17.5644 24.1757,17.5561 24.2125,17.5474 24.2492,17.5383 24.2857,17.5288 24.3222,17.519 24.3586,17.5088 24.3949,17.4983 24.4311,17.4874 24.4672,17.4761 24.5032,17.4645 24.539,17.4525 24.5747,17.4402 24.6103,17.4275 24.6458,17.4144 24.6811,17.401 24.7163,17.3873 24.7514,17.3732 24.7863,17.3587 24.8211,17.3439 24.8557,17.3287 24.8902,17.3132 24.9245,17.2974 24.9587,17.2812 24.9927,17.2647 25.0265,17.2478 25.0601,17.2306 25.0936,17.2131 25.1269,17.1952 25.16,17.177 25.193,17.1584 25.2257,17.1396 25.2583,17.1204 25.2906,17.1009 25.3228,17.081 25.3548,17.0609 25.3865,17.0404 25.4181,17.0196 25.4495,16.9985 25.4806,16.9771 25.5115,16.9553 25.5422,16.9333 25.5727,16.9109 25.603,16.8883 25.633,16.8653 25.6628,16.8421 25.6923,16.8185 25.7217,16.7947 25.7508,16.7706 25.7796,16.7461 25.8082,16.7214 25.8366,16.6964 25.8646,16.6712 25.8925,16.6456 25.9201,16.6198 25.9474,16.5937 25.9745,16.5673 26.0013,16.5406 26.0278,16.5137 26.0541,16.4865 26.0801,16.4591 26.1058,16.4314 26.1312,16.4034 26.1564,16.3752 26.1812,16.3468 26.2058,16.318 26.2301,16.2891 26.2541,16.2599 26.2778,16.2305 26.3012,16.2008 26.3244,16.1709 26.3472,16.1408 26.3697,16.1104 26.3919,16.0798 26.4138,16.049 26.4354,16.018 26.4567,15.9868 26.4777,15.9553 26.4983,15.9237 26.5186,15.8918 26.5387,15.8598 26.5584,15.8275 26.5777,15.7951 26.5968,15.7624 26.6155,15.7296 26.6339,15.6966 26.652,15.6634 26.6697,15.63 26.6871,15.5964 26.7041,15.5627 26.7208,15.5288 26.7372,15.4947 26.7533,15.4605 26.769,15.4261 26.7843,15.3916 26.7993,15.3569 26.814,15.3221 26.8283,15.2871 26.8422,15.252 26.8558,15.2167 26.8691,15.1813 26.882,15.1458 26.8945,15.1101 26.9067,15.0744 26.9185,15.0385 26.93,15.0024 26.9411,14.9663 26.9518,14.9301 26.9622,14.8937 26.9722,14.8573 26.9819,14.8207 26.9912,14.7841 27.0001,14.7474 27.0086,14.7106 27.0168,14.6737 27.0246,14.6367 27.0321,14.5996 27.0391,14.5625 27.0458,14.5253 27.0522,14.488 27.0581,14.4507 27.0637,14.4133 27.0689,14.3759 27.0737,14.3384 27.0782,14.3009 27.0823,14.2633 27.086,14.2257 27.0893,14.1881 27.0922,14.1504 27.0948,14.1127 27.097,14.0749 27.0988,14.0372 27.1003,13.9994 27.1013,13.9616 27.102,13.9238 27.1023,13.8861 " />
</g>
</svg>
